<?xml version="1.0" encoding="utf-8" standalone="no"?>
<!DOCTYPE svg PUBLIC "-//W3C//DTD SVG 1.1//EN"
  "http://www.w3.org/Graphics/SVG/1.1/DTD/svg11.dtd">
<!-- Created with matplotlib (https://matplotlib.org/) -->
<svg height="252.838125pt" version="1.1" viewBox="0 0 826.882812 252.838125" width="826.882812pt" xmlns="http://www.w3.org/2000/svg" xmlns:xlink="http://www.w3.org/1999/xlink">
 <defs>
  <style type="text/css">
*{stroke-linecap:butt;stroke-linejoin:round;}
  </style>
 </defs>
 <g id="figure_1">
  <g id="patch_1">
   <path d="M 0 252.838125 
L 826.882812 252.838125 
L 826.882812 0 
L 0 0 
z
" style="fill:#ffffff;"/>
  </g>
  <g id="axes_1">
   <g id="patch_2">
    <path d="M 38.482813 228.96 
L 819.682813 228.96 
L 819.682813 7.2 
L 38.482813 7.2 
z
" style="fill:#ffffff;"/>
   </g>
   <g id="matplotlib.axis_1">
    <g id="xtick_1">
     <g id="line2d_1">
      <path clip-path="url(#paa503c1b45)" d="M 73.991903 228.96 
L 73.991903 7.2 
" style="fill:none;stroke:#b0b0b0;stroke-linecap:square;stroke-width:0.8;"/>
     </g>
     <g id="line2d_2">
      <defs>
       <path d="M 0 0 
L 0 3.5 
" id="m1b688cdc3b" style="stroke:#000000;stroke-width:0.8;"/>
      </defs>
      <g>
       <use style="stroke:#000000;stroke-width:0.8;" x="73.991903" xlink:href="#m1b688cdc3b" y="228.96"/>
      </g>
     </g>
     <g id="text_1">
      <!-- 0 -->
      <defs>
       <path d="M 31.78125 66.40625 
Q 24.171875 66.40625 20.328125 58.90625 
Q 16.5 51.421875 16.5 36.375 
Q 16.5 21.390625 20.328125 13.890625 
Q 24.171875 6.390625 31.78125 6.390625 
Q 39.453125 6.390625 43.28125 13.890625 
Q 47.125 21.390625 47.125 36.375 
Q 47.125 51.421875 43.28125 58.90625 
Q 39.453125 66.40625 31.78125 66.40625 
z
M 31.78125 74.21875 
Q 44.046875 74.21875 50.515625 64.515625 
Q 56.984375 54.828125 56.984375 36.375 
Q 56.984375 17.96875 50.515625 8.265625 
Q 44.046875 -1.421875 31.78125 -1.421875 
Q 19.53125 -1.421875 13.0625 8.265625 
Q 6.59375 17.96875 6.59375 36.375 
Q 6.59375 54.828125 13.0625 64.515625 
Q 19.53125 74.21875 31.78125 74.21875 
z
" id="DejaVuSans-48"/>
      </defs>
      <g transform="translate(70.810653 243.558437)scale(0.1 -0.1)">
       <use xlink:href="#DejaVuSans-48"/>
      </g>
     </g>
    </g>
    <g id="xtick_2">
     <g id="line2d_3">
      <path clip-path="url(#paa503c1b45)" d="M 215.51877 228.96 
L 215.51877 7.2 
" style="fill:none;stroke:#b0b0b0;stroke-linecap:square;stroke-width:0.8;"/>
     </g>
     <g id="line2d_4">
      <g>
       <use style="stroke:#000000;stroke-width:0.8;" x="215.51877" xlink:href="#m1b688cdc3b" y="228.96"/>
      </g>
     </g>
     <g id="text_2">
      <!-- 500 -->
      <defs>
       <path d="M 10.796875 72.90625 
L 49.515625 72.90625 
L 49.515625 64.59375 
L 19.828125 64.59375 
L 19.828125 46.734375 
Q 21.96875 47.46875 24.109375 47.828125 
Q 26.265625 48.1875 28.421875 48.1875 
Q 40.625 48.1875 47.75 41.5 
Q 54.890625 34.8125 54.890625 23.390625 
Q 54.890625 11.625 47.5625 5.09375 
Q 40.234375 -1.421875 26.90625 -1.421875 
Q 22.3125 -1.421875 17.546875 -0.640625 
Q 12.796875 0.140625 7.71875 1.703125 
L 7.71875 11.625 
Q 12.109375 9.234375 16.796875 8.0625 
Q 21.484375 6.890625 26.703125 6.890625 
Q 35.15625 6.890625 40.078125 11.328125 
Q 45.015625 15.765625 45.015625 23.390625 
Q 45.015625 31 40.078125 35.4375 
Q 35.15625 39.890625 26.703125 39.890625 
Q 22.75 39.890625 18.8125 39.015625 
Q 14.890625 38.140625 10.796875 36.28125 
z
" id="DejaVuSans-53"/>
      </defs>
      <g transform="translate(205.97502 243.558437)scale(0.1 -0.1)">
       <use xlink:href="#DejaVuSans-53"/>
       <use x="63.623047" xlink:href="#DejaVuSans-48"/>
       <use x="127.246094" xlink:href="#DejaVuSans-48"/>
      </g>
     </g>
    </g>
    <g id="xtick_3">
     <g id="line2d_5">
      <path clip-path="url(#paa503c1b45)" d="M 357.045637 228.96 
L 357.045637 7.2 
" style="fill:none;stroke:#b0b0b0;stroke-linecap:square;stroke-width:0.8;"/>
     </g>
     <g id="line2d_6">
      <g>
       <use style="stroke:#000000;stroke-width:0.8;" x="357.045637" xlink:href="#m1b688cdc3b" y="228.96"/>
      </g>
     </g>
     <g id="text_3">
      <!-- 1000 -->
      <defs>
       <path d="M 12.40625 8.296875 
L 28.515625 8.296875 
L 28.515625 63.921875 
L 10.984375 60.40625 
L 10.984375 69.390625 
L 28.421875 72.90625 
L 38.28125 72.90625 
L 38.28125 8.296875 
L 54.390625 8.296875 
L 54.390625 0 
L 12.40625 0 
z
" id="DejaVuSans-49"/>
      </defs>
      <g transform="translate(344.320637 243.558437)scale(0.1 -0.1)">
       <use xlink:href="#DejaVuSans-49"/>
       <use x="63.623047" xlink:href="#DejaVuSans-48"/>
       <use x="127.246094" xlink:href="#DejaVuSans-48"/>
       <use x="190.869141" xlink:href="#DejaVuSans-48"/>
      </g>
     </g>
    </g>
    <g id="xtick_4">
     <g id="line2d_7">
      <path clip-path="url(#paa503c1b45)" d="M 498.572504 228.96 
L 498.572504 7.2 
" style="fill:none;stroke:#b0b0b0;stroke-linecap:square;stroke-width:0.8;"/>
     </g>
     <g id="line2d_8">
      <g>
       <use style="stroke:#000000;stroke-width:0.8;" x="498.572504" xlink:href="#m1b688cdc3b" y="228.96"/>
      </g>
     </g>
     <g id="text_4">
      <!-- 1500 -->
      <g transform="translate(485.847504 243.558437)scale(0.1 -0.1)">
       <use xlink:href="#DejaVuSans-49"/>
       <use x="63.623047" xlink:href="#DejaVuSans-53"/>
       <use x="127.246094" xlink:href="#DejaVuSans-48"/>
       <use x="190.869141" xlink:href="#DejaVuSans-48"/>
      </g>
     </g>
    </g>
    <g id="xtick_5">
     <g id="line2d_9">
      <path clip-path="url(#paa503c1b45)" d="M 640.099371 228.96 
L 640.099371 7.2 
" style="fill:none;stroke:#b0b0b0;stroke-linecap:square;stroke-width:0.8;"/>
     </g>
     <g id="line2d_10">
      <g>
       <use style="stroke:#000000;stroke-width:0.8;" x="640.099371" xlink:href="#m1b688cdc3b" y="228.96"/>
      </g>
     </g>
     <g id="text_5">
      <!-- 2000 -->
      <defs>
       <path d="M 19.1875 8.296875 
L 53.609375 8.296875 
L 53.609375 0 
L 7.328125 0 
L 7.328125 8.296875 
Q 12.9375 14.109375 22.625 23.890625 
Q 32.328125 33.6875 34.8125 36.53125 
Q 39.546875 41.84375 41.421875 45.53125 
Q 43.3125 49.21875 43.3125 52.78125 
Q 43.3125 58.59375 39.234375 62.25 
Q 35.15625 65.921875 28.609375 65.921875 
Q 23.96875 65.921875 18.8125 64.3125 
Q 13.671875 62.703125 7.8125 59.421875 
L 7.8125 69.390625 
Q 13.765625 71.78125 18.9375 73 
Q 24.125 74.21875 28.421875 74.21875 
Q 39.75 74.21875 46.484375 68.546875 
Q 53.21875 62.890625 53.21875 53.421875 
Q 53.21875 48.921875 51.53125 44.890625 
Q 49.859375 40.875 45.40625 35.40625 
Q 44.1875 33.984375 37.640625 27.21875 
Q 31.109375 20.453125 19.1875 8.296875 
z
" id="DejaVuSans-50"/>
      </defs>
      <g transform="translate(627.374371 243.558437)scale(0.1 -0.1)">
       <use xlink:href="#DejaVuSans-50"/>
       <use x="63.623047" xlink:href="#DejaVuSans-48"/>
       <use x="127.246094" xlink:href="#DejaVuSans-48"/>
       <use x="190.869141" xlink:href="#DejaVuSans-48"/>
      </g>
     </g>
    </g>
    <g id="xtick_6">
     <g id="line2d_11">
      <path clip-path="url(#paa503c1b45)" d="M 781.626238 228.96 
L 781.626238 7.2 
" style="fill:none;stroke:#b0b0b0;stroke-linecap:square;stroke-width:0.8;"/>
     </g>
     <g id="line2d_12">
      <g>
       <use style="stroke:#000000;stroke-width:0.8;" x="781.626238" xlink:href="#m1b688cdc3b" y="228.96"/>
      </g>
     </g>
     <g id="text_6">
      <!-- 2500 -->
      <g transform="translate(768.901238 243.558437)scale(0.1 -0.1)">
       <use xlink:href="#DejaVuSans-50"/>
       <use x="63.623047" xlink:href="#DejaVuSans-53"/>
       <use x="127.246094" xlink:href="#DejaVuSans-48"/>
       <use x="190.869141" xlink:href="#DejaVuSans-48"/>
      </g>
     </g>
    </g>
   </g>
   <g id="matplotlib.axis_2">
    <g id="ytick_1">
     <g id="line2d_13">
      <path clip-path="url(#paa503c1b45)" d="M 38.482813 199.530498 
L 819.682813 199.530498 
" style="fill:none;stroke:#b0b0b0;stroke-linecap:square;stroke-width:0.8;"/>
     </g>
     <g id="line2d_14">
      <defs>
       <path d="M 0 0 
L -3.5 0 
" id="m22eb39388a" style="stroke:#000000;stroke-width:0.8;"/>
      </defs>
      <g>
       <use style="stroke:#000000;stroke-width:0.8;" x="38.482813" xlink:href="#m22eb39388a" y="199.530498"/>
      </g>
     </g>
     <g id="text_7">
      <!-- −0.1 -->
      <defs>
       <path d="M 10.59375 35.5 
L 73.1875 35.5 
L 73.1875 27.203125 
L 10.59375 27.203125 
z
" id="DejaVuSans-8722"/>
       <path d="M 10.6875 12.40625 
L 21 12.40625 
L 21 0 
L 10.6875 0 
z
" id="DejaVuSans-46"/>
      </defs>
      <g transform="translate(7.2 203.329716)scale(0.1 -0.1)">
       <use xlink:href="#DejaVuSans-8722"/>
       <use x="83.789062" xlink:href="#DejaVuSans-48"/>
       <use x="147.412109" xlink:href="#DejaVuSans-46"/>
       <use x="179.199219" xlink:href="#DejaVuSans-49"/>
      </g>
     </g>
    </g>
    <g id="ytick_2">
     <g id="line2d_15">
      <path clip-path="url(#paa503c1b45)" d="M 38.482813 163.080398 
L 819.682813 163.080398 
" style="fill:none;stroke:#b0b0b0;stroke-linecap:square;stroke-width:0.8;"/>
     </g>
     <g id="line2d_16">
      <g>
       <use style="stroke:#000000;stroke-width:0.8;" x="38.482813" xlink:href="#m22eb39388a" y="163.080398"/>
      </g>
     </g>
     <g id="text_8">
      <!-- 0.0 -->
      <g transform="translate(15.579688 166.879617)scale(0.1 -0.1)">
       <use xlink:href="#DejaVuSans-48"/>
       <use x="63.623047" xlink:href="#DejaVuSans-46"/>
       <use x="95.410156" xlink:href="#DejaVuSans-48"/>
      </g>
     </g>
    </g>
    <g id="ytick_3">
     <g id="line2d_17">
      <path clip-path="url(#paa503c1b45)" d="M 38.482813 126.630299 
L 819.682813 126.630299 
" style="fill:none;stroke:#b0b0b0;stroke-linecap:square;stroke-width:0.8;"/>
     </g>
     <g id="line2d_18">
      <g>
       <use style="stroke:#000000;stroke-width:0.8;" x="38.482813" xlink:href="#m22eb39388a" y="126.630299"/>
      </g>
     </g>
     <g id="text_9">
      <!-- 0.1 -->
      <g transform="translate(15.579688 130.429517)scale(0.1 -0.1)">
       <use xlink:href="#DejaVuSans-48"/>
       <use x="63.623047" xlink:href="#DejaVuSans-46"/>
       <use x="95.410156" xlink:href="#DejaVuSans-49"/>
      </g>
     </g>
    </g>
    <g id="ytick_4">
     <g id="line2d_19">
      <path clip-path="url(#paa503c1b45)" d="M 38.482813 90.180199 
L 819.682813 90.180199 
" style="fill:none;stroke:#b0b0b0;stroke-linecap:square;stroke-width:0.8;"/>
     </g>
     <g id="line2d_20">
      <g>
       <use style="stroke:#000000;stroke-width:0.8;" x="38.482813" xlink:href="#m22eb39388a" y="90.180199"/>
      </g>
     </g>
     <g id="text_10">
      <!-- 0.2 -->
      <g transform="translate(15.579688 93.979418)scale(0.1 -0.1)">
       <use xlink:href="#DejaVuSans-48"/>
       <use x="63.623047" xlink:href="#DejaVuSans-46"/>
       <use x="95.410156" xlink:href="#DejaVuSans-50"/>
      </g>
     </g>
    </g>
    <g id="ytick_5">
     <g id="line2d_21">
      <path clip-path="url(#paa503c1b45)" d="M 38.482813 53.7301 
L 819.682813 53.7301 
" style="fill:none;stroke:#b0b0b0;stroke-linecap:square;stroke-width:0.8;"/>
     </g>
     <g id="line2d_22">
      <g>
       <use style="stroke:#000000;stroke-width:0.8;" x="38.482813" xlink:href="#m22eb39388a" y="53.7301"/>
      </g>
     </g>
     <g id="text_11">
      <!-- 0.3 -->
      <defs>
       <path d="M 40.578125 39.3125 
Q 47.65625 37.796875 51.625 33 
Q 55.609375 28.21875 55.609375 21.1875 
Q 55.609375 10.40625 48.1875 4.484375 
Q 40.765625 -1.421875 27.09375 -1.421875 
Q 22.515625 -1.421875 17.65625 -0.515625 
Q 12.796875 0.390625 7.625 2.203125 
L 7.625 11.71875 
Q 11.71875 9.328125 16.59375 8.109375 
Q 21.484375 6.890625 26.8125 6.890625 
Q 36.078125 6.890625 40.9375 10.546875 
Q 45.796875 14.203125 45.796875 21.1875 
Q 45.796875 27.640625 41.28125 31.265625 
Q 36.765625 34.90625 28.71875 34.90625 
L 20.21875 34.90625 
L 20.21875 43.015625 
L 29.109375 43.015625 
Q 36.375 43.015625 40.234375 45.921875 
Q 44.09375 48.828125 44.09375 54.296875 
Q 44.09375 59.90625 40.109375 62.90625 
Q 36.140625 65.921875 28.71875 65.921875 
Q 24.65625 65.921875 20.015625 65.03125 
Q 15.375 64.15625 9.8125 62.3125 
L 9.8125 71.09375 
Q 15.4375 72.65625 20.34375 73.4375 
Q 25.25 74.21875 29.59375 74.21875 
Q 40.828125 74.21875 47.359375 69.109375 
Q 53.90625 64.015625 53.90625 55.328125 
Q 53.90625 49.265625 50.4375 45.09375 
Q 46.96875 40.921875 40.578125 39.3125 
z
" id="DejaVuSans-51"/>
      </defs>
      <g transform="translate(15.579688 57.529318)scale(0.1 -0.1)">
       <use xlink:href="#DejaVuSans-48"/>
       <use x="63.623047" xlink:href="#DejaVuSans-46"/>
       <use x="95.410156" xlink:href="#DejaVuSans-51"/>
      </g>
     </g>
    </g>
    <g id="ytick_6">
     <g id="line2d_23">
      <path clip-path="url(#paa503c1b45)" d="M 38.482813 17.28 
L 819.682813 17.28 
" style="fill:none;stroke:#b0b0b0;stroke-linecap:square;stroke-width:0.8;"/>
     </g>
     <g id="line2d_24">
      <g>
       <use style="stroke:#000000;stroke-width:0.8;" x="38.482813" xlink:href="#m22eb39388a" y="17.28"/>
      </g>
     </g>
     <g id="text_12">
      <!-- 0.4 -->
      <defs>
       <path d="M 37.796875 64.3125 
L 12.890625 25.390625 
L 37.796875 25.390625 
z
M 35.203125 72.90625 
L 47.609375 72.90625 
L 47.609375 25.390625 
L 58.015625 25.390625 
L 58.015625 17.1875 
L 47.609375 17.1875 
L 47.609375 0 
L 37.796875 0 
L 37.796875 17.1875 
L 4.890625 17.1875 
L 4.890625 26.703125 
z
" id="DejaVuSans-52"/>
      </defs>
      <g transform="translate(15.579688 21.079219)scale(0.1 -0.1)">
       <use xlink:href="#DejaVuSans-48"/>
       <use x="63.623047" xlink:href="#DejaVuSans-46"/>
       <use x="95.410156" xlink:href="#DejaVuSans-52"/>
      </g>
     </g>
    </g>
   </g>
   <g id="line2d_25">
    <path clip-path="url(#paa503c1b45)" d="M 73.991903 17.28 
L 365.537249 17.28 
L 365.820303 21.428023 
L 370.349163 21.428023 
L 370.632216 17.28 
L 450.453369 17.28 
L 450.736423 21.428023 
L 455.265283 21.428023 
L 455.548337 17.28 
L 532.255898 17.28 
L 532.538952 21.428023 
L 532.822006 22.812349 
L 533.10506 32.50261 
L 533.388113 47.735118 
L 533.671167 47.735118 
L 533.954221 46.350793 
L 534.237275 42.197825 
L 535.086436 42.197825 
L 535.36949 44.966467 
L 535.652543 46.350793 
L 535.935597 53.272412 
L 536.218651 62.967618 
L 536.501704 65.736261 
L 536.784758 67.120586 
L 537.067812 86.506054 
L 537.350866 96.196319 
L 537.633919 97.580645 
L 537.916973 92.043351 
L 538.200027 92.043351 
L 538.483081 94.811998 
L 538.766134 103.122879 
L 539.049188 123.892676 
L 539.332242 125.276998 
L 539.615296 118.350438 
L 539.898349 116.966113 
L 540.181403 107.275851 
L 540.464457 107.275851 
L 540.74751 110.044498 
L 543.861102 110.044498 
L 544.427209 107.275851 
L 544.710263 108.660172 
L 544.993317 108.660172 
L 545.842478 104.507204 
L 546.125531 104.507204 
L 546.408585 103.122879 
L 547.257746 103.122879 
L 547.5408 104.507204 
L 547.823854 107.275851 
L 548.106908 107.275851 
L 548.389961 105.891526 
L 548.673015 105.891526 
L 548.956069 104.507204 
L 549.239123 104.507204 
L 549.522176 103.122879 
L 551.220499 103.122879 
L 551.503552 104.507204 
L 552.918821 104.507204 
L 553.201875 103.122879 
L 554.051036 103.122879 
L 554.33409 104.507204 
L 554.617143 103.122879 
L 555.183251 103.122879 
L 555.466305 104.507204 
L 555.749358 103.122879 
L 556.032412 103.122879 
L 556.315466 101.738558 
L 557.447681 101.738558 
L 557.730735 98.969911 
L 558.013788 98.969911 
L 558.296842 97.580645 
L 558.579896 97.580645 
L 558.862949 98.969911 
L 559.146003 97.580645 
L 559.429057 100.354232 
L 559.995164 100.354232 
L 560.278218 98.969911 
L 560.561272 100.354232 
L 560.844326 98.969911 
L 561.127379 82.353086 
L 561.410433 78.200118 
L 561.693487 79.584443 
L 561.976541 72.65788 
L 562.259594 62.967618 
L 562.542648 61.583293 
L 562.825702 62.967618 
L 563.674863 62.967618 
L 563.957917 60.198967 
L 564.24097 60.198967 
L 564.524024 57.42538 
L 564.807078 56.041054 
L 565.090132 56.041054 
L 565.656239 38.044848 
L 565.939293 35.271261 
L 566.222347 29.733968 
L 566.5054 21.428023 
L 566.788454 17.28 
L 567.071508 60.198967 
L 567.354561 57.42538 
L 567.637615 56.041054 
L 567.920669 56.041054 
L 568.486776 38.044848 
L 568.76983 35.271261 
L 569.052884 29.733968 
L 569.335938 21.428023 
L 569.618991 17.28 
L 631.041652 17.28 
L 631.324705 18.659381 
L 631.607759 25.581 
L 631.890813 26.965317 
L 632.45692 33.886936 
L 632.739974 31.118293 
L 633.023028 31.118293 
L 633.306081 33.886936 
L 633.589135 42.197825 
L 633.872189 43.582142 
L 634.155243 50.503761 
L 634.438296 50.503761 
L 634.72135 47.735118 
L 635.287458 47.735118 
L 635.570511 51.888086 
L 635.853565 58.814642 
L 636.136619 60.198967 
L 636.419673 69.889228 
L 636.702726 85.121737 
L 636.98578 78.200118 
L 637.268834 79.584443 
L 637.551887 83.737411 
L 638.117995 83.737411 
L 638.401049 85.121737 
L 638.684102 93.427673 
L 638.967156 93.427673 
L 639.25021 105.891526 
L 639.533264 111.428819 
L 640.382425 89.274705 
L 640.665479 90.659026 
L 640.948532 101.738558 
L 641.231586 101.738558 
L 641.797693 96.196319 
L 642.080747 87.890379 
L 642.363801 87.890379 
L 642.646855 86.506054 
L 642.929908 87.890379 
L 643.212962 94.811998 
L 643.496016 94.811998 
L 643.77907 90.659026 
L 644.062123 92.043351 
L 644.345177 90.659026 
L 644.911285 93.427673 
L 645.194338 97.580645 
L 645.477392 97.580645 
L 645.760446 94.811998 
L 646.043499 94.811998 
L 646.326553 93.427673 
L 646.609607 94.811998 
L 646.892661 90.659026 
L 647.175714 90.659026 
L 647.741822 93.427673 
L 648.024876 93.427673 
L 648.307929 92.043351 
L 648.590983 92.043351 
L 648.874037 93.427673 
L 649.157091 93.427673 
L 649.440144 100.354232 
L 650.289305 100.354232 
L 650.572359 98.969911 
L 651.138467 98.969911 
L 651.704574 89.274705 
L 651.987628 87.890379 
L 652.270682 85.121737 
L 652.553735 85.121737 
L 652.836789 83.737411 
L 653.119843 83.737411 
L 653.402897 82.353086 
L 654.252058 82.353086 
L 654.535111 76.810847 
L 654.818165 76.810847 
L 655.101219 75.426522 
L 655.384273 72.65788 
L 657.082595 72.65788 
L 657.648703 69.889228 
L 657.931756 71.273554 
L 658.497864 68.504912 
L 659.063971 68.504912 
L 659.347025 60.198967 
L 659.630079 56.041054 
L 660.47924 56.041054 
L 660.762294 53.272412 
L 662.460616 53.272412 
L 662.74367 49.119435 
L 663.026724 47.735118 
L 663.309777 38.044848 
L 664.158938 33.886936 
L 665.291153 17.28 
L 712.561127 17.28 
L 712.844181 22.812349 
L 713.127234 33.886936 
L 713.693342 33.886936 
L 713.976396 38.044848 
L 714.259449 38.044848 
L 714.542503 33.886936 
L 714.825557 33.886936 
L 715.957772 72.65788 
L 716.240825 71.273554 
L 716.523879 58.814642 
L 716.806933 58.814642 
L 717.089987 60.198967 
L 717.37304 57.42538 
L 717.656094 56.041054 
L 717.939148 56.041054 
L 718.222202 54.656729 
L 718.505255 54.656729 
L 718.788309 53.272412 
L 719.354417 53.272412 
L 719.63747 51.888086 
L 719.920524 49.119435 
L 720.203578 49.119435 
L 720.486631 47.735118 
L 720.769685 42.197825 
L 721.052739 40.813499 
L 721.618846 40.813499 
L 721.9019 42.197825 
L 722.184954 42.197825 
L 722.751061 54.656729 
L 723.034115 53.272412 
L 723.317169 53.272412 
L 723.600223 51.888086 
L 724.732437 51.888086 
L 725.015491 50.503761 
L 725.581599 50.503761 
L 725.864652 49.119435 
L 727.279921 49.119435 
L 727.562975 50.503761 
L 728.129082 50.503761 
L 728.412136 51.888086 
L 729.544351 51.888086 
L 729.827405 50.503761 
L 730.393512 50.503761 
L 730.676566 51.888086 
L 730.95962 71.273554 
L 731.525727 64.351935 
L 732.091835 61.583293 
L 732.374888 62.967618 
L 732.657942 61.583293 
L 733.22405 61.583293 
L 733.507103 60.198967 
L 734.073211 60.198967 
L 734.356264 58.814642 
L 734.639318 58.814642 
L 735.205426 56.041054 
L 735.488479 53.272412 
L 735.771533 54.656729 
L 736.054587 54.656729 
L 736.337641 53.272412 
L 736.903748 47.735118 
L 737.186802 47.735118 
L 737.469856 50.503761 
L 737.752909 50.503761 
L 738.60207 46.350793 
L 738.885124 46.350793 
L 739.168178 40.813499 
L 739.451232 40.813499 
L 739.734285 39.429174 
L 740.017339 31.118293 
L 740.300393 26.965317 
L 740.583447 26.965317 
L 741.149554 32.50261 
L 741.715662 32.50261 
L 742.281769 29.733968 
L 742.564823 31.118293 
L 742.847876 29.733968 
L 743.697038 29.733968 
L 743.980091 31.118293 
L 744.263145 28.349642 
L 744.546199 26.965317 
L 744.829253 28.349642 
L 746.244521 28.349642 
L 746.527575 26.965317 
L 746.810629 26.965317 
L 747.093682 25.581 
L 747.376736 26.965317 
L 747.65979 26.965317 
L 747.942844 24.196674 
L 748.225897 22.812349 
L 748.792005 22.812349 
L 749.075059 17.28 
L 784.173722 17.28 
L 784.173722 17.28 
" style="fill:none;stroke:#1f77b4;stroke-linecap:square;stroke-width:1.5;"/>
   </g>
   <g id="line2d_26">
    <path clip-path="url(#paa503c1b45)" d="M 73.991903 163.080398 
L 94.654826 163.080398 
L 94.93788 158.505704 
L 95.220933 159.894971 
L 95.503987 162.663618 
L 95.787041 163.080398 
L 109.37362 163.080398 
L 109.939728 159.894971 
L 110.222781 150.199763 
L 110.505835 152.96841 
L 110.788889 151.584086 
L 111.071943 152.96841 
L 111.354996 151.584086 
L 111.63805 146.046793 
L 112.204157 146.046793 
L 112.487211 147.431116 
L 112.770265 146.046793 
L 113.053319 147.431116 
L 113.336372 139.125176 
L 113.619426 139.125176 
L 114.185534 141.893823 
L 114.751641 141.893823 
L 115.317749 139.125176 
L 115.600802 139.125176 
L 115.883856 140.509499 
L 116.449963 140.509499 
L 116.733017 141.893823 
L 117.016071 140.509499 
L 117.582178 140.509499 
L 117.865232 141.893823 
L 118.43134 141.893823 
L 118.714393 140.509499 
L 118.997447 140.509499 
L 119.280501 141.893823 
L 119.563555 140.509499 
L 119.846608 141.893823 
L 120.412716 141.893823 
L 120.695769 140.509499 
L 120.978823 141.893823 
L 121.544931 141.893823 
L 121.827984 143.278146 
L 122.394092 143.278146 
L 122.677146 144.66247 
L 122.960199 161.279294 
L 123.243253 163.080398 
L 123.809361 163.080398 
L 124.092414 162.663618 
L 124.658522 162.663618 
L 124.941575 161.279294 
L 125.507683 161.279294 
L 125.790737 162.663618 
L 127.772113 162.663618 
L 128.055167 161.279294 
L 128.33822 162.663618 
L 134.282349 162.663618 
L 134.565402 163.080398 
L 134.848456 162.663618 
L 135.13151 163.080398 
L 135.414564 162.663618 
L 137.112886 162.663618 
L 137.39594 163.080398 
L 137.678994 162.663618 
L 147.30282 162.663618 
L 147.585874 163.080398 
L 147.868928 162.663618 
L 148.151982 163.080398 
L 155.228325 163.080398 
L 155.511379 164.876558 
L 155.794432 167.650148 
L 159.191077 167.650148 
L 159.474131 169.034472 
L 159.757185 167.650148 
L 160.040238 167.650148 
L 160.323292 169.034472 
L 160.606346 174.571765 
L 161.172453 177.340411 
L 161.455507 175.956088 
L 161.738561 166.260881 
L 163.719937 166.260881 
L 164.002991 167.650148 
L 164.286045 166.260881 
L 165.984367 166.260881 
L 166.267421 164.876558 
L 166.550474 166.260881 
L 167.116582 166.260881 
L 167.399636 167.650148 
L 167.965743 174.571765 
L 168.248797 174.571765 
L 168.531851 180.109058 
L 168.814904 189.804267 
L 169.097958 188.419943 
L 169.381012 196.725883 
L 169.664065 195.34156 
L 169.947119 196.725883 
L 170.230173 195.34156 
L 172.494603 195.34156 
L 172.777657 193.957237 
L 173.06071 195.34156 
L 173.343764 195.34156 
L 173.626818 193.957237 
L 173.909871 195.34156 
L 175.608194 195.34156 
L 175.891248 193.957237 
L 176.174301 195.34156 
L 176.457355 193.957237 
L 177.023463 193.957237 
L 177.306516 187.030675 
L 177.872624 167.650148 
L 178.155677 169.034472 
L 178.438731 169.034472 
L 178.721785 170.418795 
L 179.287892 170.418795 
L 179.570946 171.803119 
L 179.854 170.418795 
L 180.137054 171.803119 
L 180.420107 170.418795 
L 186.364236 170.418795 
L 186.647289 169.034472 
L 186.930343 170.418795 
L 187.213397 170.418795 
L 187.496451 169.034472 
L 187.779504 169.034472 
L 188.062558 170.418795 
L 188.345612 169.034472 
L 188.628666 169.034472 
L 188.911719 170.418795 
L 190.326988 170.418795 
L 190.610042 169.034472 
L 191.176149 169.034472 
L 191.459203 170.418795 
L 191.742257 170.418795 
L 192.02531 169.034472 
L 192.308364 170.418795 
L 192.591418 169.034472 
L 192.874472 169.034472 
L 193.157525 170.418795 
L 193.440579 169.034472 
L 193.723633 169.034472 
L 194.006687 170.418795 
L 194.28974 169.034472 
L 194.572794 170.418795 
L 194.855848 169.034472 
L 195.138901 169.034472 
L 195.421955 170.418795 
L 195.988063 167.650148 
L 196.55417 167.650148 
L 196.837224 163.080398 
L 200.516922 163.080398 
L 200.799976 163.492234 
L 201.08303 163.080398 
L 201.366084 163.492234 
L 201.649137 163.492234 
L 201.932191 163.080398 
L 202.498299 163.080398 
L 202.781352 163.492234 
L 203.064406 163.080398 
L 203.34746 163.080398 
L 203.630514 163.492234 
L 203.913567 163.492234 
L 204.196621 163.080398 
L 204.762728 163.080398 
L 205.045782 163.492234 
L 205.328836 163.492234 
L 205.61189 163.080398 
L 205.894943 163.492234 
L 207.310212 163.492234 
L 207.593266 163.080398 
L 207.87632 163.492234 
L 208.442427 163.492234 
L 208.725481 163.080398 
L 209.008534 163.080398 
L 209.291588 163.492234 
L 209.574642 163.492234 
L 209.857696 163.080398 
L 210.140749 163.492234 
L 210.989911 163.492234 
L 211.272964 163.080398 
L 211.556018 163.492234 
L 211.839072 163.492234 
L 212.122126 163.080398 
L 212.971287 163.080398 
L 213.25434 163.492234 
L 214.386555 163.492234 
L 214.669609 163.080398 
L 214.952663 163.080398 
L 215.235717 163.492234 
L 216.934039 163.492234 
L 217.217093 163.080398 
L 219.481523 163.080398 
L 219.764576 158.505704 
L 220.04763 158.505704 
L 220.330684 154.352734 
L 220.613738 146.046793 
L 220.896791 147.431116 
L 221.462899 147.431116 
L 221.745952 146.046793 
L 222.029006 137.73591 
L 222.595114 137.73591 
L 222.878167 133.58294 
L 223.161221 126.661323 
L 223.444275 126.661323 
L 223.727329 128.045647 
L 224.010382 126.661323 
L 224.293436 126.661323 
L 224.57649 128.045647 
L 224.859544 126.661323 
L 225.991758 126.661323 
L 226.274812 128.045647 
L 226.84092 128.045647 
L 227.123973 126.661323 
L 227.690081 126.661323 
L 227.973135 128.045647 
L 228.256188 126.661323 
L 228.539242 128.045647 
L 228.822296 130.814293 
L 229.10535 130.814293 
L 229.388403 129.42997 
L 229.954511 129.42997 
L 230.803672 133.58294 
L 231.086726 141.893823 
L 231.369779 146.046793 
L 231.652833 144.66247 
L 231.935887 144.66247 
L 232.218941 146.046793 
L 232.501994 161.279294 
L 232.785048 162.663618 
L 233.068102 161.279294 
L 233.351156 161.279294 
L 233.634209 162.663618 
L 233.917263 161.279294 
L 234.200317 161.279294 
L 234.48337 159.894971 
L 234.766424 161.279294 
L 235.049478 159.894971 
L 235.332532 159.894971 
L 235.615585 161.279294 
L 235.898639 159.894971 
L 237.313908 159.894971 
L 237.596962 158.505704 
L 237.880015 159.894971 
L 239.01223 159.894971 
L 239.295284 158.505704 
L 239.861391 158.505704 
L 240.144445 159.894971 
L 240.427499 159.894971 
L 240.710553 158.505704 
L 240.993606 158.505704 
L 241.27666 159.894971 
L 241.559714 158.505704 
L 241.842768 159.894971 
L 243.824144 159.894971 
L 244.390251 163.080398 
L 246.371627 163.080398 
L 246.654681 158.505704 
L 247.220789 158.505704 
L 247.503842 159.894971 
L 247.786896 158.505704 
L 248.06995 159.894971 
L 248.353003 158.505704 
L 248.636057 158.505704 
L 248.919111 159.894971 
L 251.183541 159.894971 
L 251.466595 158.505704 
L 251.749648 159.894971 
L 252.032702 159.894971 
L 252.315756 158.505704 
L 252.598809 159.894971 
L 253.164917 159.894971 
L 253.447971 161.279294 
L 253.731024 158.505704 
L 254.014078 159.894971 
L 254.297132 159.894971 
L 254.580186 161.279294 
L 254.863239 159.894971 
L 255.146293 159.894971 
L 255.429347 161.279294 
L 255.712401 159.894971 
L 255.995454 163.080398 
L 257.127669 163.080398 
L 257.410723 158.505704 
L 257.693777 157.12138 
L 257.97683 158.505704 
L 258.542938 158.505704 
L 258.825992 159.894971 
L 259.675153 159.894971 
L 259.958207 158.505704 
L 260.24126 159.894971 
L 260.524314 158.505704 
L 260.807368 158.505704 
L 261.090421 147.431116 
L 261.373475 146.046793 
L 261.656529 141.893823 
L 261.939583 128.045647 
L 263.071798 128.045647 
L 263.354851 129.42997 
L 263.637905 158.505704 
L 264.204013 146.046793 
L 264.487066 146.046793 
L 264.77012 128.045647 
L 265.619281 128.045647 
L 265.902335 129.42997 
L 266.468442 129.42997 
L 267.03455 132.198617 
L 267.317604 130.814293 
L 268.166765 130.814293 
L 268.449819 133.58294 
L 269.29898 133.58294 
L 269.582033 132.198617 
L 269.865087 128.045647 
L 270.431195 128.045647 
L 270.714248 126.661323 
L 270.997302 128.045647 
L 273.261732 128.045647 
L 273.544786 129.42997 
L 273.827839 133.58294 
L 274.110893 133.58294 
L 274.677001 136.351587 
L 274.960054 143.278146 
L 275.243108 147.431116 
L 275.526162 147.431116 
L 275.809216 154.352734 
L 276.941431 154.352734 
L 277.224484 152.96841 
L 277.507538 154.352734 
L 277.790592 154.352734 
L 278.073646 152.96841 
L 278.356699 152.96841 
L 278.639753 154.352734 
L 279.20586 154.352734 
L 279.488914 152.96841 
L 280.055022 155.737057 
L 280.338075 158.505704 
L 281.47029 158.505704 
L 281.753344 159.894971 
L 282.319452 159.894971 
L 282.602505 163.080398 
L 286.565258 163.080398 
L 286.848311 167.650148 
L 287.131365 182.877705 
L 287.414419 185.646352 
L 287.697472 214.727032 
L 287.980526 218.88 
L 295.906031 218.88 
L 296.472138 199.49453 
L 297.038246 199.49453 
L 297.321299 200.878854 
L 297.604353 199.49453 
L 297.887407 200.878854 
L 298.170461 199.49453 
L 298.453514 192.572913 
L 298.736568 177.340411 
L 300.43489 177.340411 
L 300.717944 178.724735 
L 301.000998 175.956088 
L 301.284052 166.260881 
L 301.567105 167.650148 
L 301.850159 166.260881 
L 302.133213 163.080398 
L 306.095965 163.080398 
L 306.379019 162.663618 
L 306.662073 162.663618 
L 306.945126 158.505704 
L 307.22818 158.505704 
L 307.794288 146.046793 
L 308.077341 144.66247 
L 308.360395 139.125176 
L 308.926502 139.125176 
L 309.209556 137.73591 
L 309.49261 134.967263 
L 309.775664 133.58294 
L 310.058717 133.58294 
L 310.341771 125.276998 
L 312.606201 125.276998 
L 312.889255 126.661323 
L 314.304523 126.661323 
L 314.587577 128.045647 
L 315.436738 128.045647 
L 315.719792 143.278146 
L 316.002846 144.66247 
L 316.2859 143.278146 
L 316.568953 144.66247 
L 316.852007 144.66247 
L 317.135061 143.278146 
L 317.984222 143.278146 
L 318.267276 144.66247 
L 318.550329 143.278146 
L 319.116437 143.278146 
L 319.399491 159.894971 
L 319.682544 163.080398 
L 321.946974 163.080398 
L 322.230028 162.663618 
L 322.513082 162.663618 
L 322.796135 161.279294 
L 323.079189 161.279294 
L 323.362243 163.080398 
L 326.475834 163.080398 
L 326.758888 162.663618 
L 327.041941 161.279294 
L 327.324995 161.279294 
L 327.608049 162.663618 
L 327.891103 161.279294 
L 328.740264 161.279294 
L 329.023318 162.663618 
L 329.306371 161.279294 
L 330.72164 161.279294 
L 331.004694 162.663618 
L 331.287747 162.663618 
L 331.570801 163.080398 
L 344.025165 163.080398 
L 344.308219 163.492234 
L 344.591273 163.492234 
L 344.874327 163.080398 
L 345.15738 169.034472 
L 345.440434 177.340411 
L 345.723488 195.34156 
L 346.006542 195.34156 
L 346.289595 193.957237 
L 346.572649 195.34156 
L 351.101509 195.34156 
L 351.384563 193.957237 
L 351.667616 195.34156 
L 351.95067 193.957237 
L 352.233724 193.957237 
L 352.516777 195.34156 
L 353.648992 195.34156 
L 354.2151 192.572913 
L 354.498154 193.957237 
L 354.781207 193.957237 
L 355.064261 174.571765 
L 355.347315 171.803119 
L 355.913422 171.803119 
L 356.196476 173.187441 
L 356.47953 173.187441 
L 356.762584 171.803119 
L 357.328691 171.803119 
L 357.611745 173.187441 
L 357.894798 171.803119 
L 358.74396 171.803119 
L 359.027013 164.876558 
L 359.310067 163.080398 
L 360.159228 163.080398 
L 360.442282 163.492234 
L 360.725336 163.080398 
L 361.291443 163.080398 
L 361.574497 163.492234 
L 362.706712 163.492234 
L 362.989766 163.080398 
L 363.838927 163.080398 
L 364.121981 147.431116 
L 364.405034 143.278146 
L 364.688088 126.661323 
L 364.971142 125.276998 
L 365.254196 121.12403 
L 365.537249 93.427673 
L 365.820303 79.584443 
L 369.783055 79.584443 
L 370.066109 80.96876 
L 370.349163 80.96876 
L 370.632216 89.274705 
L 370.91527 93.427673 
L 371.198324 100.354232 
L 371.481378 101.738558 
L 372.330539 114.197466 
L 372.613593 112.813145 
L 373.1797 112.813145 
L 373.462754 118.350438 
L 373.745808 146.046793 
L 374.311915 146.046793 
L 374.594969 144.66247 
L 375.44413 144.66247 
L 375.727184 146.046793 
L 376.010237 144.66247 
L 376.293291 146.046793 
L 376.576345 144.66247 
L 376.859399 146.046793 
L 377.70856 146.046793 
L 377.991614 144.66247 
L 378.274667 144.66247 
L 378.557721 146.046793 
L 378.840775 144.66247 
L 379.123828 144.66247 
L 379.406882 146.046793 
L 380.539097 146.046793 
L 380.822151 144.66247 
L 381.105205 144.66247 
L 381.388258 146.046793 
L 381.671312 144.66247 
L 381.954366 144.66247 
L 382.23742 146.046793 
L 382.520473 146.046793 
L 382.803527 148.81544 
L 383.086581 154.352734 
L 383.935742 154.352734 
L 384.218796 163.080398 
L 387.898494 163.080398 
L 388.181548 163.492234 
L 388.464602 164.876558 
L 388.747655 173.187441 
L 389.030709 192.572913 
L 389.313763 199.49453 
L 389.87987 202.263175 
L 390.162924 200.878854 
L 390.445978 202.263175 
L 390.729032 217.495679 
L 391.295139 217.495679 
L 391.578193 216.111353 
L 395.257891 216.111353 
L 396.107053 169.034472 
L 396.390106 167.650148 
L 396.67316 167.650148 
L 396.956214 169.034472 
L 398.088429 169.034472 
L 398.371482 167.650148 
L 398.654536 169.034472 
L 407.429202 169.034472 
L 407.712256 167.650148 
L 408.278363 167.650148 
L 408.561417 163.080398 
L 428.941286 163.080398 
L 429.224339 163.492234 
L 429.507393 163.492234 
L 429.790447 163.080398 
L 430.073501 169.034472 
L 430.356554 177.340411 
L 430.639608 195.34156 
L 430.922662 195.34156 
L 431.205716 193.957237 
L 431.488769 195.34156 
L 436.017629 195.34156 
L 436.300683 193.957237 
L 436.583736 195.34156 
L 436.86679 193.957237 
L 437.149844 193.957237 
L 437.432898 195.34156 
L 438.565113 195.34156 
L 439.13122 192.572913 
L 439.414274 193.957237 
L 439.697328 193.957237 
L 439.980381 174.571765 
L 440.263435 171.803119 
L 440.829542 171.803119 
L 441.112596 173.187441 
L 441.39565 173.187441 
L 441.678704 171.803119 
L 442.244811 171.803119 
L 442.527865 173.187441 
L 442.810919 171.803119 
L 443.66008 171.803119 
L 443.943134 164.876558 
L 444.226187 163.080398 
L 445.075348 163.080398 
L 445.358402 163.492234 
L 445.641456 163.080398 
L 446.207563 163.080398 
L 446.490617 163.492234 
L 447.622832 163.492234 
L 447.905886 163.080398 
L 448.755047 163.080398 
L 449.038101 147.431116 
L 449.321154 143.278146 
L 449.604208 126.661323 
L 449.887262 125.276998 
L 450.170316 121.12403 
L 450.453369 93.427673 
L 450.736423 79.584443 
L 454.699175 79.584443 
L 454.982229 80.96876 
L 455.265283 80.96876 
L 455.548337 89.274705 
L 455.83139 93.427673 
L 456.114444 100.354232 
L 456.397498 101.738558 
L 457.246659 114.197466 
L 457.529713 112.813145 
L 458.09582 112.813145 
L 458.378874 118.350438 
L 458.661928 146.046793 
L 459.228035 146.046793 
L 459.511089 144.66247 
L 460.36025 144.66247 
L 460.643304 146.046793 
L 460.926358 144.66247 
L 461.209411 146.046793 
L 461.492465 144.66247 
L 461.775519 146.046793 
L 462.62468 146.046793 
L 462.907734 144.66247 
L 463.190787 144.66247 
L 463.473841 146.046793 
L 463.756895 144.66247 
L 464.039949 144.66247 
L 464.323002 146.046793 
L 465.455217 146.046793 
L 465.738271 144.66247 
L 466.021325 144.66247 
L 466.304378 146.046793 
L 466.587432 144.66247 
L 466.870486 144.66247 
L 467.15354 146.046793 
L 467.436593 146.046793 
L 467.719647 148.81544 
L 468.002701 154.352734 
L 468.851862 154.352734 
L 469.134916 163.080398 
L 472.814614 163.080398 
L 473.097668 163.492234 
L 473.380722 164.876558 
L 473.663776 173.187441 
L 473.946829 192.572913 
L 474.229883 199.49453 
L 474.795991 202.263175 
L 475.079044 200.878854 
L 475.362098 202.263175 
L 475.645152 217.495679 
L 476.211259 217.495679 
L 476.494313 216.111353 
L 480.174011 216.111353 
L 481.023173 169.034472 
L 481.306226 167.650148 
L 481.58928 167.650148 
L 481.872334 169.034472 
L 483.004549 169.034472 
L 483.287603 167.650148 
L 483.570656 169.034472 
L 492.345322 169.034472 
L 492.628376 167.650148 
L 493.194483 167.650148 
L 493.477537 163.080398 
L 516.404889 163.080398 
L 516.687943 164.876558 
L 516.970997 164.876558 
L 517.254051 163.492234 
L 517.537104 164.876558 
L 517.820158 164.876558 
L 518.103212 174.571765 
L 518.386266 175.956088 
L 518.669319 191.18859 
L 518.952373 196.725883 
L 520.933749 196.725883 
L 521.216803 195.34156 
L 522.065964 195.34156 
L 522.349018 196.725883 
L 522.632072 196.725883 
L 522.915125 195.34156 
L 523.198179 195.34156 
L 523.481233 196.725883 
L 523.764286 195.34156 
L 524.04734 195.34156 
L 524.330394 196.725883 
L 524.613448 196.725883 
L 524.896501 195.34156 
L 525.179555 185.646352 
L 527.443985 185.646352 
L 527.727039 187.030675 
L 528.010092 187.030675 
L 528.293146 185.646352 
L 529.142307 185.646352 
L 529.425361 178.724735 
L 529.708415 177.340411 
L 529.991469 174.571765 
L 530.274522 170.418795 
L 530.557576 169.034472 
L 530.84063 170.418795 
L 531.123684 170.418795 
L 531.406737 167.650148 
L 531.689791 163.492234 
L 531.972845 163.492234 
L 532.255898 163.080398 
L 538.200027 163.080398 
L 538.483081 147.431116 
L 538.766134 143.278146 
L 539.049188 144.66247 
L 539.615296 141.893823 
L 539.898349 143.278146 
L 540.181403 141.893823 
L 540.74751 144.66247 
L 541.030564 144.66247 
L 541.313618 143.278146 
L 541.596672 143.278146 
L 541.879725 141.893823 
L 545.559424 141.893823 
L 546.125531 144.66247 
L 546.408585 143.278146 
L 546.691639 143.278146 
L 546.974693 144.66247 
L 547.5408 141.893823 
L 548.106908 141.893823 
L 548.389961 140.509499 
L 548.673015 140.509499 
L 548.956069 141.893823 
L 549.239123 141.893823 
L 549.522176 140.509499 
L 550.088284 140.509499 
L 550.371337 141.893823 
L 550.654391 141.893823 
L 550.937445 140.509499 
L 553.767982 140.509499 
L 554.051036 139.125176 
L 554.33409 140.509499 
L 555.183251 140.509499 
L 555.466305 141.893823 
L 556.032412 141.893823 
L 556.315466 140.509499 
L 556.881573 140.509499 
L 557.164627 139.125176 
L 557.447681 140.509499 
L 557.730735 139.125176 
L 558.013788 139.125176 
L 558.296842 137.73591 
L 558.862949 137.73591 
L 559.146003 139.125176 
L 559.429057 137.73591 
L 560.844326 137.73591 
L 561.127379 132.198617 
L 561.410433 130.814293 
L 561.693487 130.814293 
L 561.976541 132.198617 
L 562.259594 134.967263 
L 562.542648 132.198617 
L 562.825702 134.967263 
L 563.391809 134.967263 
L 563.957917 137.73591 
L 564.24097 137.73591 
L 564.807078 143.278146 
L 565.090132 144.66247 
L 565.373185 143.278146 
L 565.656239 140.509499 
L 566.222347 137.73591 
L 566.5054 139.125176 
L 566.788454 146.046793 
L 567.071508 137.73591 
L 567.637615 143.278146 
L 567.920669 144.66247 
L 568.203723 143.278146 
L 568.486776 140.509499 
L 569.052884 137.73591 
L 569.335938 139.125176 
L 569.902045 151.584086 
L 570.185099 162.663618 
L 570.468153 163.080398 
L 573.29869 163.080398 
L 573.581744 164.876558 
L 574.430905 164.876558 
L 574.713959 180.109058 
L 576.129227 180.109058 
L 576.412281 181.493382 
L 576.695335 180.109058 
L 576.978388 181.493382 
L 577.261442 193.957237 
L 577.544496 192.572913 
L 582.073356 192.572913 
L 582.356409 191.18859 
L 582.639463 192.572913 
L 582.922517 191.18859 
L 584.054732 191.18859 
L 584.337786 192.572913 
L 584.620839 191.18859 
L 586.036108 191.18859 
L 586.602215 171.803119 
L 586.885269 171.803119 
L 587.168323 173.187441 
L 587.451377 171.803119 
L 587.73443 173.187441 
L 588.866645 173.187441 
L 589.149699 171.803119 
L 590.848021 171.803119 
L 591.131075 173.187441 
L 591.414129 171.803119 
L 591.697183 164.876558 
L 593.395505 164.876558 
L 593.678559 166.260881 
L 593.961612 164.876558 
L 594.52772 164.876558 
L 594.810774 166.260881 
L 595.093827 164.876558 
L 595.376881 164.876558 
L 595.659935 166.260881 
L 595.942989 164.876558 
L 596.226042 166.260881 
L 596.509096 164.876558 
L 596.79215 166.260881 
L 597.075204 166.260881 
L 597.358257 164.876558 
L 597.641311 166.260881 
L 597.924365 164.876558 
L 598.773526 164.876558 
L 599.05658 166.260881 
L 599.339633 164.876558 
L 600.188795 164.876558 
L 600.471848 163.492234 
L 601.32101 163.492234 
L 601.604063 164.876558 
L 601.887117 163.492234 
L 605.566816 163.492234 
L 605.849869 163.080398 
L 614.058428 163.080398 
L 614.341481 154.352734 
L 614.624535 155.737057 
L 614.907589 154.352734 
L 615.190642 154.352734 
L 615.473696 155.737057 
L 615.75675 154.352734 
L 616.039804 147.431116 
L 616.322857 144.66247 
L 616.888965 144.66247 
L 617.172019 143.278146 
L 617.455072 146.046793 
L 617.738126 147.431116 
L 618.02118 146.046793 
L 618.870341 146.046793 
L 619.153395 147.431116 
L 619.436449 147.431116 
L 619.719502 146.046793 
L 620.28561 146.046793 
L 620.568663 147.431116 
L 620.851717 146.046793 
L 621.134771 147.431116 
L 621.417825 147.431116 
L 621.700878 146.046793 
L 621.983932 147.431116 
L 623.682255 147.431116 
L 623.965308 146.046793 
L 624.248362 147.431116 
L 624.531416 146.046793 
L 624.814469 146.046793 
L 625.097523 147.431116 
L 627.645007 147.431116 
L 627.928061 146.046793 
L 628.211114 140.509499 
L 628.494168 137.73591 
L 628.777222 139.125176 
L 629.060275 139.125176 
L 629.343329 137.73591 
L 629.909437 140.509499 
L 630.19249 143.278146 
L 630.475544 143.278146 
L 630.758598 146.046793 
L 631.041652 147.431116 
L 631.324705 154.352734 
L 631.607759 158.505704 
L 631.890813 159.894971 
L 632.173867 162.663618 
L 632.45692 163.080398 
L 633.023028 163.080398 
L 633.306081 162.663618 
L 633.589135 159.894971 
L 633.872189 159.894971 
L 634.155243 158.505704 
L 634.438296 158.505704 
L 634.72135 159.894971 
L 635.004404 158.505704 
L 635.287458 158.505704 
L 635.570511 163.080398 
L 638.967156 163.080398 
L 639.25021 164.876558 
L 639.533264 169.034472 
L 639.816317 170.418795 
L 640.099371 170.418795 
L 640.665479 173.187441 
L 640.948532 181.493382 
L 641.231586 182.877705 
L 641.51464 185.646352 
L 641.797693 189.804267 
L 642.080747 182.877705 
L 642.646855 182.877705 
L 642.929908 181.493382 
L 643.212962 185.646352 
L 643.496016 184.262028 
L 644.628231 184.262028 
L 644.911285 185.646352 
L 645.194338 185.646352 
L 645.760446 188.419943 
L 646.043499 191.18859 
L 646.609607 188.419943 
L 647.458768 188.419943 
L 647.741822 191.18859 
L 648.024876 191.18859 
L 648.307929 189.804267 
L 648.874037 192.572913 
L 649.157091 192.572913 
L 649.440144 196.725883 
L 649.723198 195.34156 
L 650.289305 195.34156 
L 650.572359 193.957237 
L 650.855413 195.34156 
L 651.138467 195.34156 
L 651.987628 191.18859 
L 652.270682 187.030675 
L 652.553735 189.804267 
L 652.836789 191.18859 
L 653.119843 191.18859 
L 653.402897 189.804267 
L 653.969004 192.572913 
L 654.252058 195.34156 
L 655.101219 195.34156 
L 655.384273 193.957237 
L 655.95038 193.957237 
L 656.233434 192.572913 
L 656.516488 193.957237 
L 656.799541 192.572913 
L 657.082595 192.572913 
L 657.365649 191.18859 
L 657.648703 191.18859 
L 658.21481 193.957237 
L 658.497864 193.957237 
L 659.063971 191.18859 
L 659.347025 175.956088 
L 659.630079 175.956088 
L 659.913132 174.571765 
L 660.47924 177.340411 
L 661.045347 177.340411 
L 661.328401 175.956088 
L 661.894509 175.956088 
L 662.460616 178.724735 
L 662.74367 178.724735 
L 663.309777 171.803119 
L 663.592831 171.803119 
L 663.875885 170.418795 
L 664.158938 170.418795 
L 664.441992 166.260881 
L 664.725046 164.876558 
L 665.0081 167.650148 
L 665.291153 166.260881 
L 665.574207 163.080398 
L 665.857261 163.080398 
L 666.140315 163.492234 
L 667.27253 163.492234 
L 667.555583 163.080398 
L 670.669174 163.080398 
L 670.952228 159.894971 
L 671.235282 159.894971 
L 671.518336 152.96841 
L 671.801389 136.351587 
L 672.084443 137.73591 
L 672.933604 137.73591 
L 673.216658 139.125176 
L 673.499712 137.73591 
L 673.782765 137.73591 
L 674.065819 134.967263 
L 675.481088 134.967263 
L 675.764142 133.58294 
L 676.047195 125.276998 
L 678.311625 125.276998 
L 678.594679 126.661323 
L 678.877733 126.661323 
L 679.160786 136.351587 
L 682.557431 136.351587 
L 682.840485 137.73591 
L 683.123539 136.351587 
L 683.406592 136.351587 
L 683.689646 134.967263 
L 683.9727 134.967263 
L 684.255754 136.351587 
L 685.954076 136.351587 
L 686.23713 146.046793 
L 686.803237 146.046793 
L 687.086291 147.431116 
L 687.369345 154.352734 
L 687.652398 152.96841 
L 687.935452 152.96841 
L 688.218506 154.352734 
L 688.50156 154.352734 
L 688.784613 152.96841 
L 689.067667 154.352734 
L 689.350721 152.96841 
L 693.030419 152.96841 
L 693.313473 154.352734 
L 693.87958 154.352734 
L 694.162634 163.080398 
L 716.240825 163.080398 
L 716.523879 151.584086 
L 716.806933 152.96841 
L 717.089987 150.199763 
L 717.37304 146.046793 
L 717.656094 147.431116 
L 717.939148 147.431116 
L 718.222202 150.199763 
L 718.505255 150.199763 
L 718.788309 152.96841 
L 719.354417 152.96841 
L 719.920524 155.737057 
L 720.203578 154.352734 
L 720.486631 154.352734 
L 720.769685 155.737057 
L 722.184954 155.737057 
L 722.468008 157.12138 
L 722.751061 155.737057 
L 723.034115 155.737057 
L 723.317169 154.352734 
L 723.883276 154.352734 
L 724.16633 155.737057 
L 724.732437 155.737057 
L 725.298545 158.505704 
L 725.581599 157.12138 
L 726.713814 157.12138 
L 726.996867 155.737057 
L 727.279921 155.737057 
L 727.562975 152.96841 
L 727.846029 152.96841 
L 728.129082 150.199763 
L 728.412136 151.584086 
L 728.69519 150.199763 
L 728.978243 151.584086 
L 729.544351 151.584086 
L 729.827405 150.199763 
L 730.676566 162.663618 
L 730.95962 163.080398 
L 736.903748 163.080398 
L 737.186802 158.505704 
L 737.469856 155.737057 
L 738.035963 155.737057 
L 738.319017 158.505704 
L 738.60207 158.505704 
L 739.168178 163.080398 
L 748.792005 163.080398 
L 749.075059 170.418795 
L 749.358112 167.650148 
L 749.641166 175.956088 
L 749.92422 199.49453 
L 750.207274 198.110207 
L 751.056435 198.110207 
L 751.339488 196.725883 
L 751.622542 196.725883 
L 751.905596 189.804267 
L 752.18865 167.650148 
L 752.471703 169.034472 
L 753.886972 169.034472 
L 754.170026 170.418795 
L 757.283617 170.418795 
L 757.566671 169.034472 
L 760.680262 169.034472 
L 760.963315 167.650148 
L 761.246369 167.650148 
L 761.529423 169.034472 
L 761.812477 167.650148 
L 762.09553 169.034472 
L 764.926068 169.034472 
L 765.209121 167.650148 
L 766.341336 167.650148 
L 766.62439 166.260881 
L 766.907444 167.650148 
L 768.039659 167.650148 
L 768.322712 169.034472 
L 768.605766 167.650148 
L 768.88882 163.080398 
L 784.173722 163.080398 
L 784.173722 163.080398 
" style="fill:none;stroke:#ff7f0e;stroke-linecap:square;stroke-width:1.5;"/>
   </g>
   <g id="patch_3">
    <path d="M 38.482813 228.96 
L 38.482813 7.2 
" style="fill:none;stroke:#000000;stroke-linecap:square;stroke-linejoin:miter;stroke-width:0.8;"/>
   </g>
   <g id="patch_4">
    <path d="M 819.682813 228.96 
L 819.682813 7.2 
" style="fill:none;stroke:#000000;stroke-linecap:square;stroke-linejoin:miter;stroke-width:0.8;"/>
   </g>
   <g id="patch_5">
    <path d="M 38.482813 228.96 
L 819.682813 228.96 
" style="fill:none;stroke:#000000;stroke-linecap:square;stroke-linejoin:miter;stroke-width:0.8;"/>
   </g>
   <g id="patch_6">
    <path d="M 38.482813 7.2 
L 819.682813 7.2 
" style="fill:none;stroke:#000000;stroke-linecap:square;stroke-linejoin:miter;stroke-width:0.8;"/>
   </g>
   <g id="legend_1">
    <g id="patch_7">
     <path d="M 45.482813 223.96 
L 94.739063 223.96 
Q 96.739063 223.96 96.739063 221.96 
L 96.739063 193.0475 
Q 96.739063 191.0475 94.739063 191.0475 
L 45.482813 191.0475 
Q 43.482813 191.0475 43.482813 193.0475 
L 43.482813 221.96 
Q 43.482813 223.96 45.482813 223.96 
z
" style="fill:#ffffff;opacity:0.8;stroke:#cccccc;stroke-linejoin:miter;"/>
    </g>
    <g id="line2d_27">
     <path d="M 47.482813 199.145938 
L 67.482813 199.145938 
" style="fill:none;stroke:#1f77b4;stroke-linecap:square;stroke-width:1.5;"/>
    </g>
    <g id="line2d_28"/>
    <g id="text_13">
     <!-- u_x -->
     <defs>
      <path d="M 8.5 21.578125 
L 8.5 54.6875 
L 17.484375 54.6875 
L 17.484375 21.921875 
Q 17.484375 14.15625 20.5 10.265625 
Q 23.53125 6.390625 29.59375 6.390625 
Q 36.859375 6.390625 41.078125 11.03125 
Q 45.3125 15.671875 45.3125 23.6875 
L 45.3125 54.6875 
L 54.296875 54.6875 
L 54.296875 0 
L 45.3125 0 
L 45.3125 8.40625 
Q 42.046875 3.421875 37.71875 1 
Q 33.40625 -1.421875 27.6875 -1.421875 
Q 18.265625 -1.421875 13.375 4.4375 
Q 8.5 10.296875 8.5 21.578125 
z
M 31.109375 56 
z
" id="DejaVuSans-117"/>
      <path d="M 50.984375 -16.609375 
L 50.984375 -23.578125 
L -0.984375 -23.578125 
L -0.984375 -16.609375 
z
" id="DejaVuSans-95"/>
      <path d="M 54.890625 54.6875 
L 35.109375 28.078125 
L 55.90625 0 
L 45.3125 0 
L 29.390625 21.484375 
L 13.484375 0 
L 2.875 0 
L 24.125 28.609375 
L 4.6875 54.6875 
L 15.28125 54.6875 
L 29.78125 35.203125 
L 44.28125 54.6875 
z
" id="DejaVuSans-120"/>
     </defs>
     <g transform="translate(75.482813 202.645938)scale(0.1 -0.1)">
      <use xlink:href="#DejaVuSans-117"/>
      <use x="63.378906" xlink:href="#DejaVuSans-95"/>
      <use x="113.378906" xlink:href="#DejaVuSans-120"/>
     </g>
    </g>
    <g id="line2d_29">
     <path d="M 47.482813 214.102187 
L 67.482813 214.102187 
" style="fill:none;stroke:#ff7f0e;stroke-linecap:square;stroke-width:1.5;"/>
    </g>
    <g id="line2d_30"/>
    <g id="text_14">
     <!-- u_y -->
     <defs>
      <path d="M 32.171875 -5.078125 
Q 28.375 -14.84375 24.75 -17.8125 
Q 21.140625 -20.796875 15.09375 -20.796875 
L 7.90625 -20.796875 
L 7.90625 -13.28125 
L 13.1875 -13.28125 
Q 16.890625 -13.28125 18.9375 -11.515625 
Q 21 -9.765625 23.484375 -3.21875 
L 25.09375 0.875 
L 2.984375 54.6875 
L 12.5 54.6875 
L 29.59375 11.921875 
L 46.6875 54.6875 
L 56.203125 54.6875 
z
" id="DejaVuSans-121"/>
     </defs>
     <g transform="translate(75.482813 217.602187)scale(0.1 -0.1)">
      <use xlink:href="#DejaVuSans-117"/>
      <use x="63.378906" xlink:href="#DejaVuSans-95"/>
      <use x="113.378906" xlink:href="#DejaVuSans-121"/>
     </g>
    </g>
   </g>
  </g>
 </g>
 <defs>
  <clipPath id="paa503c1b45">
   <rect height="221.76" width="781.2" x="38.482813" y="7.2"/>
  </clipPath>
 </defs>
</svg>
