<?xml version="1.0" encoding="utf-8" standalone="no"?>
<!DOCTYPE svg PUBLIC "-//W3C//DTD SVG 1.1//EN"
  "http://www.w3.org/Graphics/SVG/1.1/DTD/svg11.dtd">
<!-- Created with matplotlib (https://matplotlib.org/) -->
<svg height="252.838125pt" version="1.1" viewBox="0 0 826.882812 252.838125" width="826.882812pt" xmlns="http://www.w3.org/2000/svg" xmlns:xlink="http://www.w3.org/1999/xlink">
 <defs>
  <style type="text/css">
*{stroke-linecap:butt;stroke-linejoin:round;}
  </style>
 </defs>
 <g id="figure_1">
  <g id="patch_1">
   <path d="M 0 252.838125 
L 826.882812 252.838125 
L 826.882812 0 
L 0 0 
z
" style="fill:#ffffff;"/>
  </g>
  <g id="axes_1">
   <g id="patch_2">
    <path d="M 38.482813 228.96 
L 819.682813 228.96 
L 819.682813 7.2 
L 38.482813 7.2 
z
" style="fill:#ffffff;"/>
   </g>
   <g id="matplotlib.axis_1">
    <g id="xtick_1">
     <g id="line2d_1">
      <path clip-path="url(#p290a5e919d)" d="M 73.991903 228.96 
L 73.991903 7.2 
" style="fill:none;stroke:#b0b0b0;stroke-linecap:square;stroke-width:0.8;"/>
     </g>
     <g id="line2d_2">
      <defs>
       <path d="M 0 0 
L 0 3.5 
" id="m37e6ea4921" style="stroke:#000000;stroke-width:0.8;"/>
      </defs>
      <g>
       <use style="stroke:#000000;stroke-width:0.8;" x="73.991903" xlink:href="#m37e6ea4921" y="228.96"/>
      </g>
     </g>
     <g id="text_1">
      <!-- 0 -->
      <defs>
       <path d="M 31.78125 66.40625 
Q 24.171875 66.40625 20.328125 58.90625 
Q 16.5 51.421875 16.5 36.375 
Q 16.5 21.390625 20.328125 13.890625 
Q 24.171875 6.390625 31.78125 6.390625 
Q 39.453125 6.390625 43.28125 13.890625 
Q 47.125 21.390625 47.125 36.375 
Q 47.125 51.421875 43.28125 58.90625 
Q 39.453125 66.40625 31.78125 66.40625 
z
M 31.78125 74.21875 
Q 44.046875 74.21875 50.515625 64.515625 
Q 56.984375 54.828125 56.984375 36.375 
Q 56.984375 17.96875 50.515625 8.265625 
Q 44.046875 -1.421875 31.78125 -1.421875 
Q 19.53125 -1.421875 13.0625 8.265625 
Q 6.59375 17.96875 6.59375 36.375 
Q 6.59375 54.828125 13.0625 64.515625 
Q 19.53125 74.21875 31.78125 74.21875 
z
" id="DejaVuSans-48"/>
      </defs>
      <g transform="translate(70.810653 243.558437)scale(0.1 -0.1)">
       <use xlink:href="#DejaVuSans-48"/>
      </g>
     </g>
    </g>
    <g id="xtick_2">
     <g id="line2d_3">
      <path clip-path="url(#p290a5e919d)" d="M 171.197189 228.96 
L 171.197189 7.2 
" style="fill:none;stroke:#b0b0b0;stroke-linecap:square;stroke-width:0.8;"/>
     </g>
     <g id="line2d_4">
      <g>
       <use style="stroke:#000000;stroke-width:0.8;" x="171.197189" xlink:href="#m37e6ea4921" y="228.96"/>
      </g>
     </g>
     <g id="text_2">
      <!-- 500 -->
      <defs>
       <path d="M 10.796875 72.90625 
L 49.515625 72.90625 
L 49.515625 64.59375 
L 19.828125 64.59375 
L 19.828125 46.734375 
Q 21.96875 47.46875 24.109375 47.828125 
Q 26.265625 48.1875 28.421875 48.1875 
Q 40.625 48.1875 47.75 41.5 
Q 54.890625 34.8125 54.890625 23.390625 
Q 54.890625 11.625 47.5625 5.09375 
Q 40.234375 -1.421875 26.90625 -1.421875 
Q 22.3125 -1.421875 17.546875 -0.640625 
Q 12.796875 0.140625 7.71875 1.703125 
L 7.71875 11.625 
Q 12.109375 9.234375 16.796875 8.0625 
Q 21.484375 6.890625 26.703125 6.890625 
Q 35.15625 6.890625 40.078125 11.328125 
Q 45.015625 15.765625 45.015625 23.390625 
Q 45.015625 31 40.078125 35.4375 
Q 35.15625 39.890625 26.703125 39.890625 
Q 22.75 39.890625 18.8125 39.015625 
Q 14.890625 38.140625 10.796875 36.28125 
z
" id="DejaVuSans-53"/>
      </defs>
      <g transform="translate(161.653439 243.558437)scale(0.1 -0.1)">
       <use xlink:href="#DejaVuSans-53"/>
       <use x="63.623047" xlink:href="#DejaVuSans-48"/>
       <use x="127.246094" xlink:href="#DejaVuSans-48"/>
      </g>
     </g>
    </g>
    <g id="xtick_3">
     <g id="line2d_5">
      <path clip-path="url(#p290a5e919d)" d="M 268.402475 228.96 
L 268.402475 7.2 
" style="fill:none;stroke:#b0b0b0;stroke-linecap:square;stroke-width:0.8;"/>
     </g>
     <g id="line2d_6">
      <g>
       <use style="stroke:#000000;stroke-width:0.8;" x="268.402475" xlink:href="#m37e6ea4921" y="228.96"/>
      </g>
     </g>
     <g id="text_3">
      <!-- 1000 -->
      <defs>
       <path d="M 12.40625 8.296875 
L 28.515625 8.296875 
L 28.515625 63.921875 
L 10.984375 60.40625 
L 10.984375 69.390625 
L 28.421875 72.90625 
L 38.28125 72.90625 
L 38.28125 8.296875 
L 54.390625 8.296875 
L 54.390625 0 
L 12.40625 0 
z
" id="DejaVuSans-49"/>
      </defs>
      <g transform="translate(255.677475 243.558437)scale(0.1 -0.1)">
       <use xlink:href="#DejaVuSans-49"/>
       <use x="63.623047" xlink:href="#DejaVuSans-48"/>
       <use x="127.246094" xlink:href="#DejaVuSans-48"/>
       <use x="190.869141" xlink:href="#DejaVuSans-48"/>
      </g>
     </g>
    </g>
    <g id="xtick_4">
     <g id="line2d_7">
      <path clip-path="url(#p290a5e919d)" d="M 365.607761 228.96 
L 365.607761 7.2 
" style="fill:none;stroke:#b0b0b0;stroke-linecap:square;stroke-width:0.8;"/>
     </g>
     <g id="line2d_8">
      <g>
       <use style="stroke:#000000;stroke-width:0.8;" x="365.607761" xlink:href="#m37e6ea4921" y="228.96"/>
      </g>
     </g>
     <g id="text_4">
      <!-- 1500 -->
      <g transform="translate(352.882761 243.558437)scale(0.1 -0.1)">
       <use xlink:href="#DejaVuSans-49"/>
       <use x="63.623047" xlink:href="#DejaVuSans-53"/>
       <use x="127.246094" xlink:href="#DejaVuSans-48"/>
       <use x="190.869141" xlink:href="#DejaVuSans-48"/>
      </g>
     </g>
    </g>
    <g id="xtick_5">
     <g id="line2d_9">
      <path clip-path="url(#p290a5e919d)" d="M 462.813047 228.96 
L 462.813047 7.2 
" style="fill:none;stroke:#b0b0b0;stroke-linecap:square;stroke-width:0.8;"/>
     </g>
     <g id="line2d_10">
      <g>
       <use style="stroke:#000000;stroke-width:0.8;" x="462.813047" xlink:href="#m37e6ea4921" y="228.96"/>
      </g>
     </g>
     <g id="text_5">
      <!-- 2000 -->
      <defs>
       <path d="M 19.1875 8.296875 
L 53.609375 8.296875 
L 53.609375 0 
L 7.328125 0 
L 7.328125 8.296875 
Q 12.9375 14.109375 22.625 23.890625 
Q 32.328125 33.6875 34.8125 36.53125 
Q 39.546875 41.84375 41.421875 45.53125 
Q 43.3125 49.21875 43.3125 52.78125 
Q 43.3125 58.59375 39.234375 62.25 
Q 35.15625 65.921875 28.609375 65.921875 
Q 23.96875 65.921875 18.8125 64.3125 
Q 13.671875 62.703125 7.8125 59.421875 
L 7.8125 69.390625 
Q 13.765625 71.78125 18.9375 73 
Q 24.125 74.21875 28.421875 74.21875 
Q 39.75 74.21875 46.484375 68.546875 
Q 53.21875 62.890625 53.21875 53.421875 
Q 53.21875 48.921875 51.53125 44.890625 
Q 49.859375 40.875 45.40625 35.40625 
Q 44.1875 33.984375 37.640625 27.21875 
Q 31.109375 20.453125 19.1875 8.296875 
z
" id="DejaVuSans-50"/>
      </defs>
      <g transform="translate(450.088047 243.558437)scale(0.1 -0.1)">
       <use xlink:href="#DejaVuSans-50"/>
       <use x="63.623047" xlink:href="#DejaVuSans-48"/>
       <use x="127.246094" xlink:href="#DejaVuSans-48"/>
       <use x="190.869141" xlink:href="#DejaVuSans-48"/>
      </g>
     </g>
    </g>
    <g id="xtick_6">
     <g id="line2d_11">
      <path clip-path="url(#p290a5e919d)" d="M 560.018332 228.96 
L 560.018332 7.2 
" style="fill:none;stroke:#b0b0b0;stroke-linecap:square;stroke-width:0.8;"/>
     </g>
     <g id="line2d_12">
      <g>
       <use style="stroke:#000000;stroke-width:0.8;" x="560.018332" xlink:href="#m37e6ea4921" y="228.96"/>
      </g>
     </g>
     <g id="text_6">
      <!-- 2500 -->
      <g transform="translate(547.293332 243.558437)scale(0.1 -0.1)">
       <use xlink:href="#DejaVuSans-50"/>
       <use x="63.623047" xlink:href="#DejaVuSans-53"/>
       <use x="127.246094" xlink:href="#DejaVuSans-48"/>
       <use x="190.869141" xlink:href="#DejaVuSans-48"/>
      </g>
     </g>
    </g>
    <g id="xtick_7">
     <g id="line2d_13">
      <path clip-path="url(#p290a5e919d)" d="M 657.223618 228.96 
L 657.223618 7.2 
" style="fill:none;stroke:#b0b0b0;stroke-linecap:square;stroke-width:0.8;"/>
     </g>
     <g id="line2d_14">
      <g>
       <use style="stroke:#000000;stroke-width:0.8;" x="657.223618" xlink:href="#m37e6ea4921" y="228.96"/>
      </g>
     </g>
     <g id="text_7">
      <!-- 3000 -->
      <defs>
       <path d="M 40.578125 39.3125 
Q 47.65625 37.796875 51.625 33 
Q 55.609375 28.21875 55.609375 21.1875 
Q 55.609375 10.40625 48.1875 4.484375 
Q 40.765625 -1.421875 27.09375 -1.421875 
Q 22.515625 -1.421875 17.65625 -0.515625 
Q 12.796875 0.390625 7.625 2.203125 
L 7.625 11.71875 
Q 11.71875 9.328125 16.59375 8.109375 
Q 21.484375 6.890625 26.8125 6.890625 
Q 36.078125 6.890625 40.9375 10.546875 
Q 45.796875 14.203125 45.796875 21.1875 
Q 45.796875 27.640625 41.28125 31.265625 
Q 36.765625 34.90625 28.71875 34.90625 
L 20.21875 34.90625 
L 20.21875 43.015625 
L 29.109375 43.015625 
Q 36.375 43.015625 40.234375 45.921875 
Q 44.09375 48.828125 44.09375 54.296875 
Q 44.09375 59.90625 40.109375 62.90625 
Q 36.140625 65.921875 28.71875 65.921875 
Q 24.65625 65.921875 20.015625 65.03125 
Q 15.375 64.15625 9.8125 62.3125 
L 9.8125 71.09375 
Q 15.4375 72.65625 20.34375 73.4375 
Q 25.25 74.21875 29.59375 74.21875 
Q 40.828125 74.21875 47.359375 69.109375 
Q 53.90625 64.015625 53.90625 55.328125 
Q 53.90625 49.265625 50.4375 45.09375 
Q 46.96875 40.921875 40.578125 39.3125 
z
" id="DejaVuSans-51"/>
      </defs>
      <g transform="translate(644.498618 243.558437)scale(0.1 -0.1)">
       <use xlink:href="#DejaVuSans-51"/>
       <use x="63.623047" xlink:href="#DejaVuSans-48"/>
       <use x="127.246094" xlink:href="#DejaVuSans-48"/>
       <use x="190.869141" xlink:href="#DejaVuSans-48"/>
      </g>
     </g>
    </g>
    <g id="xtick_8">
     <g id="line2d_15">
      <path clip-path="url(#p290a5e919d)" d="M 754.428904 228.96 
L 754.428904 7.2 
" style="fill:none;stroke:#b0b0b0;stroke-linecap:square;stroke-width:0.8;"/>
     </g>
     <g id="line2d_16">
      <g>
       <use style="stroke:#000000;stroke-width:0.8;" x="754.428904" xlink:href="#m37e6ea4921" y="228.96"/>
      </g>
     </g>
     <g id="text_8">
      <!-- 3500 -->
      <g transform="translate(741.703904 243.558437)scale(0.1 -0.1)">
       <use xlink:href="#DejaVuSans-51"/>
       <use x="63.623047" xlink:href="#DejaVuSans-53"/>
       <use x="127.246094" xlink:href="#DejaVuSans-48"/>
       <use x="190.869141" xlink:href="#DejaVuSans-48"/>
      </g>
     </g>
    </g>
   </g>
   <g id="matplotlib.axis_2">
    <g id="ytick_1">
     <g id="line2d_17">
      <path clip-path="url(#p290a5e919d)" d="M 38.482813 218.88 
L 819.682813 218.88 
" style="fill:none;stroke:#b0b0b0;stroke-linecap:square;stroke-width:0.8;"/>
     </g>
     <g id="line2d_18">
      <defs>
       <path d="M 0 0 
L -3.5 0 
" id="m0f8ec936fc" style="stroke:#000000;stroke-width:0.8;"/>
      </defs>
      <g>
       <use style="stroke:#000000;stroke-width:0.8;" x="38.482813" xlink:href="#m0f8ec936fc" y="218.88"/>
      </g>
     </g>
     <g id="text_9">
      <!-- −0.4 -->
      <defs>
       <path d="M 10.59375 35.5 
L 73.1875 35.5 
L 73.1875 27.203125 
L 10.59375 27.203125 
z
" id="DejaVuSans-8722"/>
       <path d="M 10.6875 12.40625 
L 21 12.40625 
L 21 0 
L 10.6875 0 
z
" id="DejaVuSans-46"/>
       <path d="M 37.796875 64.3125 
L 12.890625 25.390625 
L 37.796875 25.390625 
z
M 35.203125 72.90625 
L 47.609375 72.90625 
L 47.609375 25.390625 
L 58.015625 25.390625 
L 58.015625 17.1875 
L 47.609375 17.1875 
L 47.609375 0 
L 37.796875 0 
L 37.796875 17.1875 
L 4.890625 17.1875 
L 4.890625 26.703125 
z
" id="DejaVuSans-52"/>
      </defs>
      <g transform="translate(7.2 222.679219)scale(0.1 -0.1)">
       <use xlink:href="#DejaVuSans-8722"/>
       <use x="83.789062" xlink:href="#DejaVuSans-48"/>
       <use x="147.412109" xlink:href="#DejaVuSans-46"/>
       <use x="179.199219" xlink:href="#DejaVuSans-52"/>
      </g>
     </g>
    </g>
    <g id="ytick_2">
     <g id="line2d_19">
      <path clip-path="url(#p290a5e919d)" d="M 38.482813 193.68 
L 819.682813 193.68 
" style="fill:none;stroke:#b0b0b0;stroke-linecap:square;stroke-width:0.8;"/>
     </g>
     <g id="line2d_20">
      <g>
       <use style="stroke:#000000;stroke-width:0.8;" x="38.482813" xlink:href="#m0f8ec936fc" y="193.68"/>
      </g>
     </g>
     <g id="text_10">
      <!-- −0.3 -->
      <g transform="translate(7.2 197.479219)scale(0.1 -0.1)">
       <use xlink:href="#DejaVuSans-8722"/>
       <use x="83.789062" xlink:href="#DejaVuSans-48"/>
       <use x="147.412109" xlink:href="#DejaVuSans-46"/>
       <use x="179.199219" xlink:href="#DejaVuSans-51"/>
      </g>
     </g>
    </g>
    <g id="ytick_3">
     <g id="line2d_21">
      <path clip-path="url(#p290a5e919d)" d="M 38.482813 168.48 
L 819.682813 168.48 
" style="fill:none;stroke:#b0b0b0;stroke-linecap:square;stroke-width:0.8;"/>
     </g>
     <g id="line2d_22">
      <g>
       <use style="stroke:#000000;stroke-width:0.8;" x="38.482813" xlink:href="#m0f8ec936fc" y="168.48"/>
      </g>
     </g>
     <g id="text_11">
      <!-- −0.2 -->
      <g transform="translate(7.2 172.279219)scale(0.1 -0.1)">
       <use xlink:href="#DejaVuSans-8722"/>
       <use x="83.789062" xlink:href="#DejaVuSans-48"/>
       <use x="147.412109" xlink:href="#DejaVuSans-46"/>
       <use x="179.199219" xlink:href="#DejaVuSans-50"/>
      </g>
     </g>
    </g>
    <g id="ytick_4">
     <g id="line2d_23">
      <path clip-path="url(#p290a5e919d)" d="M 38.482813 143.28 
L 819.682813 143.28 
" style="fill:none;stroke:#b0b0b0;stroke-linecap:square;stroke-width:0.8;"/>
     </g>
     <g id="line2d_24">
      <g>
       <use style="stroke:#000000;stroke-width:0.8;" x="38.482813" xlink:href="#m0f8ec936fc" y="143.28"/>
      </g>
     </g>
     <g id="text_12">
      <!-- −0.1 -->
      <g transform="translate(7.2 147.079219)scale(0.1 -0.1)">
       <use xlink:href="#DejaVuSans-8722"/>
       <use x="83.789062" xlink:href="#DejaVuSans-48"/>
       <use x="147.412109" xlink:href="#DejaVuSans-46"/>
       <use x="179.199219" xlink:href="#DejaVuSans-49"/>
      </g>
     </g>
    </g>
    <g id="ytick_5">
     <g id="line2d_25">
      <path clip-path="url(#p290a5e919d)" d="M 38.482813 118.08 
L 819.682813 118.08 
" style="fill:none;stroke:#b0b0b0;stroke-linecap:square;stroke-width:0.8;"/>
     </g>
     <g id="line2d_26">
      <g>
       <use style="stroke:#000000;stroke-width:0.8;" x="38.482813" xlink:href="#m0f8ec936fc" y="118.08"/>
      </g>
     </g>
     <g id="text_13">
      <!-- 0.0 -->
      <g transform="translate(15.579688 121.879219)scale(0.1 -0.1)">
       <use xlink:href="#DejaVuSans-48"/>
       <use x="63.623047" xlink:href="#DejaVuSans-46"/>
       <use x="95.410156" xlink:href="#DejaVuSans-48"/>
      </g>
     </g>
    </g>
    <g id="ytick_6">
     <g id="line2d_27">
      <path clip-path="url(#p290a5e919d)" d="M 38.482813 92.88 
L 819.682813 92.88 
" style="fill:none;stroke:#b0b0b0;stroke-linecap:square;stroke-width:0.8;"/>
     </g>
     <g id="line2d_28">
      <g>
       <use style="stroke:#000000;stroke-width:0.8;" x="38.482813" xlink:href="#m0f8ec936fc" y="92.88"/>
      </g>
     </g>
     <g id="text_14">
      <!-- 0.1 -->
      <g transform="translate(15.579688 96.679219)scale(0.1 -0.1)">
       <use xlink:href="#DejaVuSans-48"/>
       <use x="63.623047" xlink:href="#DejaVuSans-46"/>
       <use x="95.410156" xlink:href="#DejaVuSans-49"/>
      </g>
     </g>
    </g>
    <g id="ytick_7">
     <g id="line2d_29">
      <path clip-path="url(#p290a5e919d)" d="M 38.482813 67.68 
L 819.682813 67.68 
" style="fill:none;stroke:#b0b0b0;stroke-linecap:square;stroke-width:0.8;"/>
     </g>
     <g id="line2d_30">
      <g>
       <use style="stroke:#000000;stroke-width:0.8;" x="38.482813" xlink:href="#m0f8ec936fc" y="67.68"/>
      </g>
     </g>
     <g id="text_15">
      <!-- 0.2 -->
      <g transform="translate(15.579688 71.479219)scale(0.1 -0.1)">
       <use xlink:href="#DejaVuSans-48"/>
       <use x="63.623047" xlink:href="#DejaVuSans-46"/>
       <use x="95.410156" xlink:href="#DejaVuSans-50"/>
      </g>
     </g>
    </g>
    <g id="ytick_8">
     <g id="line2d_31">
      <path clip-path="url(#p290a5e919d)" d="M 38.482813 42.48 
L 819.682813 42.48 
" style="fill:none;stroke:#b0b0b0;stroke-linecap:square;stroke-width:0.8;"/>
     </g>
     <g id="line2d_32">
      <g>
       <use style="stroke:#000000;stroke-width:0.8;" x="38.482813" xlink:href="#m0f8ec936fc" y="42.48"/>
      </g>
     </g>
     <g id="text_16">
      <!-- 0.3 -->
      <g transform="translate(15.579688 46.279219)scale(0.1 -0.1)">
       <use xlink:href="#DejaVuSans-48"/>
       <use x="63.623047" xlink:href="#DejaVuSans-46"/>
       <use x="95.410156" xlink:href="#DejaVuSans-51"/>
      </g>
     </g>
    </g>
    <g id="ytick_9">
     <g id="line2d_33">
      <path clip-path="url(#p290a5e919d)" d="M 38.482813 17.28 
L 819.682813 17.28 
" style="fill:none;stroke:#b0b0b0;stroke-linecap:square;stroke-width:0.8;"/>
     </g>
     <g id="line2d_34">
      <g>
       <use style="stroke:#000000;stroke-width:0.8;" x="38.482813" xlink:href="#m0f8ec936fc" y="17.28"/>
      </g>
     </g>
     <g id="text_17">
      <!-- 0.4 -->
      <g transform="translate(15.579688 21.079219)scale(0.1 -0.1)">
       <use xlink:href="#DejaVuSans-48"/>
       <use x="63.623047" xlink:href="#DejaVuSans-46"/>
       <use x="95.410156" xlink:href="#DejaVuSans-52"/>
      </g>
     </g>
    </g>
   </g>
   <g id="line2d_35">
    <path clip-path="url(#p290a5e919d)" d="M 73.991903 118.08 
L 80.990684 118.08 
L 81.185095 101.51841 
L 81.768326 17.28 
L 156.616396 17.28 
L 157.005217 108.217834 
L 157.199628 118.08 
L 174.69658 118.08 
L 175.085401 172.930842 
L 176.057454 218.88 
L 181.889771 218.88 
L 182.084181 203.563614 
L 182.278592 176.759084 
L 182.473002 130.809929 
L 182.667413 118.08 
L 190.055015 118.08 
L 190.249425 107.260773 
L 190.443836 118.08 
L 191.99912 118.08 
L 192.193531 107.260773 
L 192.387942 17.28 
L 260.626052 17.28 
L 260.820463 23.018947 
L 261.403694 118.08 
L 293.287028 118.08 
L 293.481439 89.073207 
L 293.675849 17.28 
L 363.469245 17.28 
L 363.663655 26.847189 
L 363.858066 29.718369 
L 364.052476 38.335333 
L 364.830119 106.303713 
L 365.024529 117.791856 
L 365.21894 118.08 
L 386.215281 118.08 
L 386.409692 26.847189 
L 386.604103 17.28 
L 418.098615 17.28 
L 418.293026 20.147761 
L 421.403595 20.147761 
L 421.598005 17.28 
L 457.952782 17.28 
L 458.147193 18.233643 
L 458.536014 104.389592 
L 458.730425 118.08 
L 490.419348 118.08 
L 490.613758 125.067566 
L 490.808169 126.024627 
L 491.00258 131.76699 
L 491.19699 133.681111 
L 491.780222 154.743276 
L 491.974632 155.700338 
L 492.557864 155.700338 
L 492.752275 157.614459 
L 492.946685 156.657397 
L 493.141096 156.657397 
L 493.529917 160.485639 
L 493.918738 160.485639 
L 494.113149 150.915035 
L 494.307559 147.083374 
L 494.50197 118.08 
L 497.418128 118.08 
L 497.612539 117.791856 
L 498.00136 17.28 
L 522.885913 17.28 
L 523.080324 20.147761 
L 523.274734 21.104823 
L 523.469145 27.804245 
L 523.663556 38.335333 
L 523.857966 38.335333 
L 524.052377 37.378271 
L 524.246787 34.507091 
L 524.830019 34.507091 
L 525.21884 37.378271 
L 525.802072 50.780533 
L 525.996482 51.737595 
L 526.385304 71.839282 
L 526.579714 72.796344 
L 526.774125 68.968102 
L 526.968535 68.968102 
L 527.162946 70.882223 
L 527.357356 76.628001 
L 527.551767 90.987328 
L 527.746178 91.944387 
L 527.940588 87.155668 
L 528.134999 86.198606 
L 528.329409 79.499184 
L 528.52382 79.499184 
L 528.71823 81.413305 
L 530.856747 81.413305 
L 531.245568 79.499184 
L 531.439978 80.456243 
L 531.634389 80.456243 
L 532.217621 77.585063 
L 532.412031 77.585063 
L 532.606442 76.628001 
L 533.189674 76.628001 
L 533.384084 77.585063 
L 533.578495 79.499184 
L 533.772905 79.499184 
L 533.967316 78.542122 
L 534.161726 78.542122 
L 534.356137 77.585063 
L 534.550548 77.585063 
L 534.744958 76.628001 
L 535.911422 76.628001 
L 536.105832 77.585063 
L 537.077885 77.585063 
L 537.272296 76.628001 
L 537.855527 76.628001 
L 538.049938 77.585063 
L 538.244348 76.628001 
L 538.63317 76.628001 
L 538.82758 77.585063 
L 539.021991 76.628001 
L 539.216401 76.628001 
L 539.410812 75.670942 
L 540.188454 75.670942 
L 540.382865 73.756821 
L 540.577275 73.756821 
L 540.771686 72.796344 
L 540.966096 72.796344 
L 541.160507 73.756821 
L 541.354918 72.796344 
L 541.549328 74.71388 
L 541.938149 74.71388 
L 542.13256 73.756821 
L 542.32697 74.71388 
L 542.521381 73.756821 
L 542.715792 62.268677 
L 542.910202 59.397497 
L 543.104613 60.354559 
L 543.687844 47.909353 
L 543.882255 48.866415 
L 544.465487 48.866415 
L 544.659897 46.952291 
L 544.854308 46.952291 
L 545.243129 44.077693 
L 545.43754 44.077693 
L 546.020771 29.718369 
L 546.604003 17.28 
L 546.798414 46.952291 
L 547.187235 44.077693 
L 547.381645 44.077693 
L 547.964877 29.718369 
L 548.548109 17.28 
L 577.126463 17.28 
L 577.320873 21.104823 
L 577.709695 98.643812 
L 577.904105 118.08 
L 590.346382 118.08 
L 590.735203 161.442701 
L 590.929613 168.145541 
L 591.512845 218.88 
L 601.038963 218.88 
L 601.233374 215.051758 
L 601.622195 132.72405 
L 601.816605 118.08 
L 602.205427 118.08 
L 602.399837 97.686751 
L 602.594248 17.28 
L 629.617317 17.28 
L 629.811728 18.233643 
L 630.006138 23.018947 
L 630.200549 23.976003 
L 630.58937 28.761307 
L 630.783781 26.847189 
L 630.978191 26.847189 
L 631.172602 28.761307 
L 631.367012 34.507091 
L 631.561423 35.464147 
L 631.755833 40.249451 
L 631.950244 40.249451 
L 632.144655 38.335333 
L 632.533476 38.335333 
L 632.727886 41.206513 
L 632.922297 45.995229 
L 633.116707 46.952291 
L 633.311118 53.651713 
L 633.505529 64.182801 
L 633.699939 59.397497 
L 633.89435 60.354559 
L 634.08876 63.225739 
L 634.477581 63.225739 
L 634.671992 64.182801 
L 634.866403 69.925161 
L 635.060813 69.925161 
L 635.449634 82.370364 
L 636.032866 67.053981 
L 636.227277 68.01104 
L 636.421687 75.670942 
L 636.616098 75.670942 
L 637.004919 71.839282 
L 637.199329 66.096919 
L 637.39374 66.096919 
L 637.588151 65.139857 
L 637.782561 66.096919 
L 637.976972 70.882223 
L 638.171382 70.882223 
L 638.365793 68.01104 
L 638.560203 68.968102 
L 638.754614 68.01104 
L 639.143435 69.925161 
L 639.337846 72.796344 
L 639.532256 72.796344 
L 639.726667 70.882223 
L 639.921077 70.882223 
L 640.115488 69.925161 
L 640.309899 70.882223 
L 640.504309 68.01104 
L 640.69872 68.01104 
L 641.087541 69.925161 
L 641.281951 69.925161 
L 641.476362 68.968102 
L 641.670773 68.968102 
L 641.865183 69.925161 
L 642.059594 69.925161 
L 642.254004 74.71388 
L 642.837236 74.71388 
L 643.031647 73.756821 
L 643.420468 73.756821 
L 643.809289 67.053981 
L 644.003699 66.096919 
L 644.19811 64.182801 
L 644.392521 64.182801 
L 644.586931 63.225739 
L 644.781342 63.225739 
L 644.975752 62.268677 
L 645.558984 62.268677 
L 645.753395 58.437017 
L 645.947805 58.437017 
L 646.142216 57.479955 
L 646.336626 55.565837 
L 647.50309 55.565837 
L 647.891911 53.651713 
L 648.086321 54.608775 
L 648.475143 52.694657 
L 648.863964 52.694657 
L 649.252785 44.077693 
L 649.836017 44.077693 
L 650.030427 42.163575 
L 651.196891 42.163575 
L 651.391301 39.292389 
L 651.585712 38.335333 
L 651.780122 31.635905 
L 652.363354 28.761307 
L 653.140996 17.28 
L 685.996383 17.28 
L 686.385204 116.834796 
L 686.579615 118.08 
L 702.13246 118.08 
L 702.521282 187.290166 
L 702.910103 218.88 
L 703.493334 218.88 
L 703.687745 189.20429 
L 703.882156 205.481151 
L 704.076566 197.821254 
L 704.270977 136.555711 
L 704.465387 118.08 
L 706.020672 118.08 
L 706.215082 97.686751 
L 706.409493 26.847189 
L 706.603904 17.28 
L 724.489676 17.28 
L 724.684087 21.104823 
L 724.878497 28.761307 
L 725.267318 28.761307 
L 725.461729 31.635905 
L 725.65614 31.635905 
L 725.85055 28.761307 
L 726.044961 28.761307 
L 726.822603 55.565837 
L 727.017014 54.608775 
L 727.211424 45.995229 
L 727.405835 45.995229 
L 727.600245 46.952291 
L 727.989066 44.077693 
L 728.183477 44.077693 
L 728.377888 43.120631 
L 728.572298 43.120631 
L 728.766709 42.163575 
L 729.15553 42.163575 
L 729.34994 41.206513 
L 729.544351 39.292389 
L 729.738762 39.292389 
L 729.933172 38.335333 
L 730.127583 34.507091 
L 730.321993 33.550029 
L 730.710814 33.550029 
L 730.905225 34.507091 
L 731.099636 34.507091 
L 731.488457 43.120631 
L 731.682867 42.163575 
L 731.877278 42.163575 
L 732.071688 41.206513 
L 732.849331 41.206513 
L 733.043741 40.249451 
L 733.432562 40.249451 
L 733.626973 39.292389 
L 734.599026 39.292389 
L 734.793436 40.249451 
L 735.182258 40.249451 
L 735.376668 41.206513 
L 736.15431 41.206513 
L 736.348721 40.249451 
L 736.737542 40.249451 
L 736.931953 41.206513 
L 737.126363 54.608775 
L 737.515184 49.823471 
L 737.904006 47.909353 
L 738.098416 48.866415 
L 738.292827 47.909353 
L 738.681648 47.909353 
L 738.876058 46.952291 
L 739.26488 46.952291 
L 739.45929 45.995229 
L 739.653701 45.995229 
L 740.042522 44.077693 
L 740.236932 42.163575 
L 740.431343 43.120631 
L 740.625754 43.120631 
L 740.820164 42.163575 
L 741.208985 38.335333 
L 741.403396 38.335333 
L 741.597806 40.249451 
L 741.792217 40.249451 
L 742.375449 37.378271 
L 742.569859 37.378271 
L 742.76427 33.550029 
L 742.95868 33.550029 
L 743.153091 32.592967 
L 743.541912 23.976003 
L 743.736323 23.976003 
L 744.125144 27.804245 
L 744.513965 27.804245 
L 744.902786 25.890127 
L 745.097197 26.847189 
L 745.291607 25.890127 
L 745.874839 25.890127 
L 746.06925 26.847189 
L 746.458071 23.976003 
L 746.652481 24.933065 
L 747.624534 24.933065 
L 747.818945 23.976003 
L 748.013355 23.976003 
L 748.207766 23.018947 
L 748.402176 23.976003 
L 748.596587 23.976003 
L 748.985408 21.104823 
L 749.374229 21.104823 
L 749.56864 17.28 
L 783.7849 17.28 
L 783.979311 19.190705 
L 784.173722 17.28 
L 784.173722 17.28 
" style="fill:none;stroke:#1f77b4;stroke-linecap:square;stroke-width:1.5;"/>
   </g>
   <g id="line2d_36">
    <path clip-path="url(#p290a5e919d)" d="M 73.991903 118.08 
L 95.960298 118.08 
L 96.154709 114.917257 
L 96.349119 115.877735 
L 96.54353 117.791856 
L 96.73794 118.08 
L 106.069648 118.08 
L 106.458469 115.877735 
L 106.652879 109.174894 
L 106.84729 111.089015 
L 107.041701 110.131954 
L 107.236111 111.089015 
L 107.430522 110.131954 
L 107.624932 106.303713 
L 108.013753 106.303713 
L 108.208164 107.260773 
L 108.402575 106.303713 
L 108.596985 107.260773 
L 108.791396 101.51841 
L 108.985806 101.51841 
L 109.374627 103.432531 
L 109.763449 103.432531 
L 110.15227 101.51841 
L 110.34668 101.51841 
L 110.541091 102.475471 
L 110.929912 102.475471 
L 111.124323 103.432531 
L 111.318733 102.475471 
L 111.707554 102.475471 
L 111.901965 103.432531 
L 112.290786 103.432531 
L 112.485197 102.475471 
L 112.679607 102.475471 
L 112.874018 103.432531 
L 113.068428 102.475471 
L 113.262839 103.432531 
L 113.65166 103.432531 
L 113.846071 102.475471 
L 114.040481 103.432531 
L 114.429302 103.432531 
L 114.623713 104.389592 
L 115.012534 104.389592 
L 115.206945 105.346652 
L 115.401355 116.834796 
L 115.595766 118.08 
L 115.984587 118.08 
L 116.178997 117.791856 
L 116.567819 117.791856 
L 116.762229 116.834796 
L 117.15105 116.834796 
L 117.345461 117.791856 
L 118.706335 117.791856 
L 118.900745 116.834796 
L 119.095156 117.791856 
L 123.177778 117.791856 
L 123.372189 118.08 
L 123.566599 117.791856 
L 123.76101 118.08 
L 123.95542 117.791856 
L 125.121884 117.791856 
L 125.316294 118.08 
L 125.510705 117.791856 
L 132.120664 117.791856 
L 132.315075 118.08 
L 132.509485 117.791856 
L 132.703896 118.08 
L 137.56416 118.08 
L 138.147392 121.239325 
L 140.285908 121.239325 
L 140.480319 122.196385 
L 140.674729 121.239325 
L 140.86914 121.239325 
L 141.063551 122.196385 
L 141.257961 126.024627 
L 141.646782 127.938748 
L 141.841193 126.981687 
L 142.035603 127.938748 
L 142.230014 127.938748 
L 142.424425 137.512771 
L 142.618835 137.512771 
L 142.813246 138.469831 
L 143.202067 138.469831 
L 143.396477 137.512771 
L 143.590888 137.512771 
L 143.785299 138.469831 
L 144.36853 135.59865 
L 144.562941 125.067566 
L 144.757351 124.110506 
L 145.146173 124.110506 
L 145.340583 126.024627 
L 145.534994 125.067566 
L 145.729404 125.067566 
L 145.923815 119.321786 
L 146.118225 118.08 
L 156.616396 118.08 
L 156.810807 120.278846 
L 157.005217 118.08 
L 174.89099 118.08 
L 175.085401 115.877735 
L 175.279811 115.877735 
L 175.863043 86.198606 
L 176.057454 99.600872 
L 176.446275 101.51841 
L 176.640685 106.303713 
L 176.835096 108.217834 
L 177.029506 108.217834 
L 177.223917 109.174894 
L 177.418328 111.089015 
L 178.584791 111.089015 
L 178.779202 110.131954 
L 178.973612 111.089015 
L 181.50095 111.089015 
L 181.69536 112.046076 
L 181.889771 114.917257 
L 182.278592 110.131954 
L 182.473002 115.877735 
L 182.667413 118.08 
L 186.750035 118.08 
L 187.138856 121.239325 
L 187.333267 122.196385 
L 187.527677 131.76699 
L 187.722088 133.681111 
L 187.916498 127.938748 
L 188.110909 118.08 
L 192.193531 118.08 
L 192.387942 120.278846 
L 192.582352 119.321786 
L 194.137637 119.321786 
L 194.332047 120.278846 
L 194.526458 119.321786 
L 194.720868 120.278846 
L 196.081742 120.278846 
L 196.276153 119.321786 
L 196.470564 119.321786 
L 196.664974 120.278846 
L 197.637027 120.278846 
L 197.831438 119.321786 
L 198.220259 121.239325 
L 198.414669 121.239325 
L 198.60908 120.278846 
L 198.997901 120.278846 
L 199.192312 121.239325 
L 199.386722 120.278846 
L 201.719649 120.278846 
L 201.91406 121.239325 
L 202.10847 120.278846 
L 203.274934 120.278846 
L 203.469344 119.321786 
L 203.663755 120.278846 
L 204.052576 120.278846 
L 204.246986 121.239325 
L 204.635808 126.024627 
L 204.830218 126.024627 
L 205.024629 129.852869 
L 205.219039 136.555711 
L 205.41345 135.59865 
L 205.60786 141.341013 
L 205.802271 140.383952 
L 205.996682 141.341013 
L 206.191092 140.383952 
L 207.746377 140.383952 
L 207.940787 139.426892 
L 208.135198 140.383952 
L 208.329608 140.383952 
L 208.524019 139.426892 
L 208.71843 140.383952 
L 209.884893 140.383952 
L 210.079304 139.426892 
L 210.273714 140.383952 
L 210.468125 139.426892 
L 210.856946 139.426892 
L 211.051356 134.638171 
L 211.440178 121.239325 
L 211.634588 122.196385 
L 211.828999 122.196385 
L 212.023409 123.153446 
L 212.41223 123.153446 
L 212.606641 124.110506 
L 212.801052 123.153446 
L 212.995462 124.110506 
L 213.189873 123.153446 
L 217.272495 123.153446 
L 217.466905 122.196385 
L 217.661316 123.153446 
L 217.855726 123.153446 
L 218.050137 122.196385 
L 218.244548 122.196385 
L 218.438958 123.153446 
L 218.633369 122.196385 
L 218.827779 122.196385 
L 219.02219 123.153446 
L 219.994243 123.153446 
L 220.188653 122.196385 
L 220.577474 122.196385 
L 220.771885 123.153446 
L 220.966296 123.153446 
L 221.160706 122.196385 
L 221.355117 123.153446 
L 221.549527 122.196385 
L 221.743938 122.196385 
L 221.938348 123.153446 
L 222.132759 122.196385 
L 222.32717 122.196385 
L 222.52158 123.153446 
L 222.715991 122.196385 
L 222.910401 123.153446 
L 223.104812 122.196385 
L 223.299222 122.196385 
L 223.493633 123.153446 
L 223.882454 121.239325 
L 224.271275 121.239325 
L 224.465686 118.08 
L 226.993023 118.08 
L 227.187434 118.364725 
L 227.381844 118.08 
L 227.576255 118.364725 
L 227.770666 118.364725 
L 227.965076 118.08 
L 228.353897 118.08 
L 228.548308 118.364725 
L 228.742718 118.08 
L 228.937129 118.08 
L 229.13154 118.364725 
L 229.32595 118.364725 
L 229.520361 118.08 
L 229.909182 118.08 
L 230.103592 118.364725 
L 230.298003 118.364725 
L 230.492414 118.08 
L 230.686824 118.364725 
L 231.658877 118.364725 
L 231.853288 118.08 
L 232.047698 118.364725 
L 232.436519 118.364725 
L 232.63093 118.08 
L 232.82534 118.08 
L 233.019751 118.364725 
L 233.214162 118.364725 
L 233.408572 118.08 
L 233.602983 118.364725 
L 234.186214 118.364725 
L 234.380625 118.08 
L 234.575036 118.364725 
L 234.769446 118.364725 
L 234.963857 118.08 
L 235.547088 118.08 
L 235.741499 118.364725 
L 236.519141 118.364725 
L 236.713552 118.08 
L 236.907962 118.08 
L 237.102373 118.364725 
L 238.268836 118.364725 
L 238.463247 118.08 
L 240.018532 118.08 
L 240.212942 114.917257 
L 240.407353 114.917257 
L 240.601763 112.046076 
L 240.796174 106.303713 
L 240.990584 107.260773 
L 241.379406 107.260773 
L 241.573816 106.303713 
L 241.768227 100.557933 
L 242.157048 100.557933 
L 242.351458 97.686751 
L 242.545869 92.901449 
L 242.74028 92.901449 
L 242.93469 93.85851 
L 243.129101 92.901449 
L 243.323511 92.901449 
L 243.517922 93.85851 
L 243.712332 92.901449 
L 244.489975 92.901449 
L 244.684385 93.85851 
L 245.073206 93.85851 
L 245.267617 92.901449 
L 245.656438 92.901449 
L 245.850849 93.85851 
L 246.045259 92.901449 
L 246.23967 93.85851 
L 246.43408 95.77263 
L 246.628491 95.77263 
L 246.822902 94.81557 
L 247.211723 94.81557 
L 247.794954 97.686751 
L 248.183776 106.303713 
L 248.378186 105.346652 
L 248.572597 105.346652 
L 248.767007 106.303713 
L 248.961418 116.834796 
L 249.155828 117.791856 
L 249.350239 116.834796 
L 249.54465 116.834796 
L 249.73906 117.791856 
L 249.933471 116.834796 
L 250.127881 116.834796 
L 250.322292 115.877735 
L 250.516702 116.834796 
L 250.711113 115.877735 
L 250.905524 115.877735 
L 251.099934 116.834796 
L 251.294345 115.877735 
L 252.266398 115.877735 
L 252.460808 114.917257 
L 252.655219 115.877735 
L 253.432861 115.877735 
L 253.627272 114.917257 
L 254.016093 114.917257 
L 254.210503 115.877735 
L 254.404914 115.877735 
L 254.599324 114.917257 
L 254.793735 114.917257 
L 254.988146 115.877735 
L 255.182556 114.917257 
L 255.376967 115.877735 
L 256.737841 115.877735 
L 257.126662 118.08 
L 286.482658 118.08 
L 286.677069 114.917257 
L 286.871479 107.260773 
L 287.06589 107.260773 
L 287.454711 104.389592 
L 288.232353 104.389592 
L 288.621174 110.131954 
L 288.815585 118.08 
L 295.619955 118.08 
L 295.814366 117.791856 
L 296.008776 118.08 
L 296.203187 117.791856 
L 296.397597 118.08 
L 296.592008 117.791856 
L 296.980829 117.791856 
L 297.17524 114.917257 
L 297.952882 114.917257 
L 298.147293 115.877735 
L 298.341703 114.917257 
L 298.536114 115.877735 
L 298.730524 114.917257 
L 298.924935 114.917257 
L 299.119345 115.877735 
L 300.67463 115.877735 
L 300.869041 114.917257 
L 301.063451 115.877735 
L 301.257862 115.877735 
L 301.452272 114.917257 
L 301.646683 115.877735 
L 302.035504 115.877735 
L 302.229915 116.834796 
L 302.424325 114.917257 
L 302.618736 115.877735 
L 302.813146 115.877735 
L 303.007557 116.834796 
L 303.201967 115.877735 
L 303.396378 115.877735 
L 303.590789 116.834796 
L 303.785199 115.877735 
L 303.97961 118.08 
L 304.757252 118.08 
L 304.951663 114.917257 
L 305.146073 113.960197 
L 305.340484 114.917257 
L 305.729305 114.917257 
L 305.923715 115.877735 
L 306.506947 115.877735 
L 306.701358 114.917257 
L 306.895768 115.877735 
L 307.090179 114.917257 
L 307.284589 114.917257 
L 307.479 107.260773 
L 307.673411 106.303713 
L 307.867821 103.432531 
L 308.062232 93.85851 
L 308.839874 93.85851 
L 309.034285 94.81557 
L 309.228695 114.917257 
L 309.617516 106.303713 
L 309.811927 106.303713 
L 310.006337 93.85851 
L 310.589569 93.85851 
L 310.78398 94.81557 
L 311.172801 94.81557 
L 311.561622 96.729691 
L 311.756033 95.77263 
L 312.339264 95.77263 
L 312.533675 97.686751 
L 313.116907 97.686751 
L 313.311317 96.729691 
L 313.505728 93.85851 
L 313.894549 93.85851 
L 314.088959 92.901449 
L 314.28337 93.85851 
L 315.838655 93.85851 
L 316.033065 94.81557 
L 316.227476 97.686751 
L 316.421886 97.686751 
L 316.810707 99.600872 
L 317.199529 107.260773 
L 317.393939 107.260773 
L 317.58835 112.046076 
L 318.365992 112.046076 
L 318.560403 111.089015 
L 318.754813 112.046076 
L 318.949224 112.046076 
L 319.143634 111.089015 
L 319.338045 111.089015 
L 319.532455 112.046076 
L 319.921277 112.046076 
L 320.115687 111.089015 
L 320.504508 113.003136 
L 320.698919 114.917257 
L 321.476561 114.917257 
L 321.670972 115.877735 
L 322.059793 115.877735 
L 322.254203 118.08 
L 324.975951 118.08 
L 325.170362 121.239325 
L 325.364773 131.76699 
L 325.559183 133.681111 
L 325.753594 153.786217 
L 325.948004 156.657397 
L 331.3915 156.657397 
L 331.780321 143.255134 
L 332.169143 143.255134 
L 332.363553 144.212194 
L 332.557964 143.255134 
L 332.752374 144.212194 
L 332.946785 143.255134 
L 333.141195 138.469831 
L 333.335606 127.938748 
L 334.502069 127.938748 
L 334.69648 128.895808 
L 334.890891 126.981687 
L 335.085301 120.278846 
L 335.279712 121.239325 
L 335.474122 120.278846 
L 335.668533 118.08 
L 338.390281 118.08 
L 338.584691 117.791856 
L 338.779102 117.791856 
L 338.973513 114.917257 
L 339.167923 114.917257 
L 339.945565 101.51841 
L 340.334387 101.51841 
L 340.528797 100.557933 
L 340.917618 97.686751 
L 341.112029 97.686751 
L 341.306439 91.944387 
L 342.861724 91.944387 
L 343.056135 92.901449 
L 344.028187 92.901449 
L 344.222598 93.85851 
L 344.80583 93.85851 
L 345.00024 104.389592 
L 345.194651 105.346652 
L 345.389061 104.389592 
L 345.583472 105.346652 
L 345.777883 105.346652 
L 345.972293 104.389592 
L 346.555525 104.389592 
L 346.749935 105.346652 
L 346.944346 104.389592 
L 347.333167 104.389592 
L 347.527578 115.877735 
L 347.721988 118.08 
L 349.277273 118.08 
L 349.471683 117.791856 
L 349.666094 117.791856 
L 349.860505 116.834796 
L 350.054915 116.834796 
L 350.249326 118.08 
L 352.387842 118.08 
L 352.582253 117.791856 
L 352.776663 116.834796 
L 352.971074 116.834796 
L 353.165484 117.791856 
L 353.359895 116.834796 
L 353.943127 116.834796 
L 354.137537 117.791856 
L 354.331948 116.834796 
L 355.304001 116.834796 
L 355.498411 117.791856 
L 355.692822 117.791856 
L 355.887232 116.834796 
L 356.081643 116.834796 
L 356.276053 117.791856 
L 356.470464 116.834796 
L 356.664875 116.834796 
L 356.859285 117.791856 
L 357.442517 117.791856 
L 357.636927 116.834796 
L 357.831338 117.791856 
L 358.025749 116.834796 
L 358.60898 116.834796 
L 358.803391 117.791856 
L 358.997801 116.834796 
L 359.192212 117.791856 
L 359.581033 117.791856 
L 359.775444 116.834796 
L 360.164265 116.834796 
L 360.358675 117.791856 
L 360.553086 118.08 
L 361.525139 118.08 
L 361.719549 117.791856 
L 361.91396 118.08 
L 362.302781 114.917257 
L 362.497192 110.131954 
L 362.691602 110.131954 
L 362.886013 107.260773 
L 363.080423 107.260773 
L 363.274834 106.303713 
L 363.469245 107.260773 
L 363.663655 113.960197 
L 363.858066 111.089015 
L 364.052476 112.046076 
L 364.246887 118.08 
L 383.299123 118.08 
L 383.493533 120.278846 
L 383.687944 119.321786 
L 383.882355 119.321786 
L 384.076765 125.067566 
L 384.271176 126.024627 
L 384.465586 130.809929 
L 384.659997 129.852869 
L 384.854407 129.852869 
L 385.048818 126.981687 
L 385.243229 118.08 
L 403.323412 118.08 
L 403.517822 118.364725 
L 403.712233 118.364725 
L 403.906643 118.08 
L 404.295465 127.938748 
L 404.489875 140.383952 
L 404.684286 140.383952 
L 404.878696 139.426892 
L 405.073107 140.383952 
L 408.183676 140.383952 
L 408.378087 139.426892 
L 408.572497 140.383952 
L 408.766908 139.426892 
L 408.961318 139.426892 
L 409.155729 140.383952 
L 409.933371 140.383952 
L 410.322192 138.469831 
L 410.516603 139.426892 
L 410.711013 139.426892 
L 410.905424 126.024627 
L 411.099835 124.110506 
L 411.488656 124.110506 
L 411.683066 125.067566 
L 411.877477 125.067566 
L 412.071887 124.110506 
L 412.460709 124.110506 
L 412.655119 125.067566 
L 412.84953 124.110506 
L 413.432761 124.110506 
L 413.627172 119.321786 
L 413.821583 118.08 
L 414.404814 118.08 
L 414.599225 118.364725 
L 414.793635 118.08 
L 415.182457 118.08 
L 415.376867 118.364725 
L 416.154509 118.364725 
L 416.34892 118.08 
L 416.932152 118.08 
L 417.126562 107.260773 
L 417.320973 104.389592 
L 417.515383 92.901449 
L 417.709794 91.944387 
L 417.904205 89.073207 
L 418.293026 60.354559 
L 421.014774 60.354559 
L 421.209184 61.311615 
L 421.403595 61.311615 
L 421.792416 69.925161 
L 421.986827 74.71388 
L 422.181237 75.670942 
L 422.764469 84.284485 
L 422.958879 83.327426 
L 423.347701 83.327426 
L 423.542111 87.155668 
L 423.736522 106.303713 
L 424.125343 106.303713 
L 424.319753 105.346652 
L 424.902985 105.346652 
L 425.097396 106.303713 
L 425.291806 105.346652 
L 425.486217 106.303713 
L 425.680627 105.346652 
L 425.875038 106.303713 
L 426.45827 106.303713 
L 426.65268 105.346652 
L 426.847091 105.346652 
L 427.041501 106.303713 
L 427.235912 105.346652 
L 427.430323 105.346652 
L 427.624733 106.303713 
L 428.402375 106.303713 
L 428.596786 105.346652 
L 428.791197 105.346652 
L 428.985607 106.303713 
L 429.180018 105.346652 
L 429.374428 105.346652 
L 429.568839 106.303713 
L 429.76325 106.303713 
L 429.95766 108.217834 
L 430.152071 112.046076 
L 430.735302 112.046076 
L 430.929713 118.08 
L 433.45705 118.08 
L 433.651461 118.364725 
L 433.845872 119.321786 
L 434.040282 125.067566 
L 434.234693 138.469831 
L 434.429103 143.255134 
L 434.817924 145.169253 
L 435.012335 144.212194 
L 435.206746 145.169253 
L 435.401156 155.700338 
L 435.789977 155.700338 
L 435.984388 154.743276 
L 438.511725 154.743276 
L 439.094957 122.196385 
L 439.289368 121.239325 
L 439.483778 121.239325 
L 439.678189 122.196385 
L 440.455831 122.196385 
L 440.650242 121.239325 
L 440.844652 122.196385 
L 446.87138 122.196385 
L 447.06579 121.239325 
L 447.454612 121.239325 
L 447.649022 118.08 
L 458.147193 118.08 
L 458.341604 118.364725 
L 458.536014 119.321786 
L 458.730425 118.08 
L 473.894449 118.08 
L 474.08886 119.321786 
L 474.28327 137.512771 
L 474.477681 138.469831 
L 475.644144 138.469831 
L 476.032966 118.08 
L 493.335506 118.08 
L 493.529917 122.196385 
L 493.724328 118.08 
L 511.998921 118.08 
L 512.193332 119.321786 
L 512.387742 119.321786 
L 512.582153 118.364725 
L 512.776564 119.321786 
L 512.970974 119.321786 
L 513.165385 126.024627 
L 513.359795 126.981687 
L 513.554206 137.512771 
L 513.748616 141.341013 
L 515.10949 141.341013 
L 515.303901 140.383952 
L 515.887133 140.383952 
L 516.081543 141.341013 
L 516.275954 141.341013 
L 516.470364 140.383952 
L 516.664775 140.383952 
L 516.859186 141.341013 
L 517.053596 140.383952 
L 517.248007 140.383952 
L 517.442417 141.341013 
L 517.636828 141.341013 
L 517.831238 140.383952 
L 518.025649 133.681111 
L 519.580934 133.681111 
L 519.775344 134.638171 
L 519.969755 134.638171 
L 520.164165 133.681111 
L 520.747397 133.681111 
L 520.941808 128.895808 
L 521.136218 127.938748 
L 521.71945 122.196385 
L 521.91386 123.153446 
L 522.108271 123.153446 
L 522.691503 118.364725 
L 522.885913 118.08 
L 526.968535 118.08 
L 527.162946 107.260773 
L 527.357356 104.389592 
L 527.551767 105.346652 
L 527.940588 103.432531 
L 528.134999 104.389592 
L 528.329409 103.432531 
L 528.71823 105.346652 
L 528.912641 105.346652 
L 529.107052 104.389592 
L 529.301462 104.389592 
L 529.495873 103.432531 
L 532.02321 103.432531 
L 532.412031 105.346652 
L 532.606442 104.389592 
L 532.800852 104.389592 
L 532.995263 105.346652 
L 533.384084 103.432531 
L 533.772905 103.432531 
L 533.967316 102.475471 
L 534.161726 102.475471 
L 534.356137 103.432531 
L 534.550548 103.432531 
L 534.744958 102.475471 
L 535.133779 102.475471 
L 535.32819 103.432531 
L 535.5226 103.432531 
L 535.717011 102.475471 
L 537.661117 102.475471 
L 537.855527 101.51841 
L 538.049938 102.475471 
L 538.63317 102.475471 
L 538.82758 103.432531 
L 539.216401 103.432531 
L 539.410812 102.475471 
L 539.799633 102.475471 
L 539.994044 101.51841 
L 540.188454 102.475471 
L 540.382865 101.51841 
L 540.577275 101.51841 
L 540.771686 100.557933 
L 541.160507 100.557933 
L 541.354918 101.51841 
L 541.549328 100.557933 
L 542.521381 100.557933 
L 542.715792 96.729691 
L 542.910202 95.77263 
L 543.104613 95.77263 
L 543.299023 96.729691 
L 543.493434 98.643812 
L 543.687844 96.729691 
L 543.882255 98.643812 
L 544.271076 98.643812 
L 544.659897 100.557933 
L 544.854308 100.557933 
L 545.43754 105.346652 
L 545.63195 104.389592 
L 546.020771 101.51841 
L 546.215182 100.557933 
L 546.409592 101.51841 
L 546.604003 106.303713 
L 546.798414 100.557933 
L 547.381645 105.346652 
L 547.576056 104.389592 
L 547.964877 101.51841 
L 548.159288 100.557933 
L 548.353698 101.51841 
L 549.13134 118.08 
L 551.075446 118.08 
L 551.269857 119.321786 
L 551.853088 119.321786 
L 552.047499 129.852869 
L 553.019552 129.852869 
L 553.213962 130.809929 
L 553.408373 129.852869 
L 553.602784 130.809929 
L 553.797194 139.426892 
L 553.991605 138.469831 
L 557.102174 138.469831 
L 557.296584 137.512771 
L 557.490995 138.469831 
L 557.685406 137.512771 
L 558.463048 137.512771 
L 558.657458 138.469831 
L 558.851869 137.512771 
L 559.823922 137.512771 
L 560.212743 124.110506 
L 560.407154 124.110506 
L 560.601564 125.067566 
L 560.795975 124.110506 
L 560.990385 125.067566 
L 561.768028 125.067566 
L 561.962438 124.110506 
L 563.128902 124.110506 
L 563.323312 125.067566 
L 563.517723 124.110506 
L 563.712133 119.321786 
L 564.878597 119.321786 
L 565.073007 120.278846 
L 565.267418 119.321786 
L 565.656239 119.321786 
L 565.85065 120.278846 
L 566.04506 119.321786 
L 566.239471 119.321786 
L 566.433881 120.278846 
L 566.628292 119.321786 
L 566.822703 120.278846 
L 567.017113 119.321786 
L 567.211524 120.278846 
L 567.405934 120.278846 
L 567.600345 119.321786 
L 567.794755 120.278846 
L 567.989166 119.321786 
L 568.572398 119.321786 
L 568.766808 120.278846 
L 568.961219 119.321786 
L 569.738861 119.321786 
L 569.933272 120.278846 
L 570.127682 119.321786 
L 570.710914 119.321786 
L 570.905325 120.278846 
L 571.099735 119.321786 
L 573.821483 119.321786 
L 574.015894 118.08 
L 591.124024 118.08 
L 591.512845 113.003136 
L 591.707256 116.834796 
L 591.901666 118.08 
L 594.817825 118.08 
L 595.012235 118.364725 
L 595.401057 118.364725 
L 595.595467 124.110506 
L 596.178699 124.110506 
L 596.56752 133.681111 
L 596.956341 133.681111 
L 597.150752 132.72405 
L 597.345162 133.681111 
L 597.539573 132.72405 
L 597.733983 132.72405 
L 597.928394 130.809929 
L 598.511626 130.809929 
L 598.706036 129.852869 
L 598.900447 118.08 
L 600.06691 118.08 
L 600.455731 114.917257 
L 600.650142 109.174894 
L 600.844553 109.174894 
L 601.038963 110.131954 
L 601.427784 114.917257 
L 601.622195 118.08 
L 602.399837 118.08 
L 602.594248 124.110506 
L 602.788658 124.110506 
L 602.983069 123.153446 
L 603.177479 120.278846 
L 603.37189 120.278846 
L 603.566301 118.08 
L 604.343943 118.08 
L 604.538353 118.364725 
L 605.315996 118.364725 
L 605.510406 118.08 
L 605.704817 118.08 
L 605.899227 118.364725 
L 606.093638 118.08 
L 606.288049 118.364725 
L 606.67687 118.364725 
L 606.87128 118.08 
L 607.260101 118.08 
L 607.454512 118.364725 
L 607.648923 118.364725 
L 607.843333 118.08 
L 608.232154 118.08 
L 608.426565 118.364725 
L 609.204207 118.364725 
L 609.398618 119.321786 
L 609.593028 118.364725 
L 612.120366 118.364725 
L 612.314776 118.08 
L 617.952683 118.08 
L 618.147093 112.046076 
L 618.341504 113.003136 
L 618.535915 112.046076 
L 618.730325 112.046076 
L 618.924736 113.003136 
L 619.119146 112.046076 
L 619.313557 107.260773 
L 619.507967 105.346652 
L 619.896789 105.346652 
L 620.091199 104.389592 
L 620.48002 107.260773 
L 620.674431 106.303713 
L 621.257663 106.303713 
L 621.452073 107.260773 
L 621.646484 107.260773 
L 621.840894 106.303713 
L 622.229715 106.303713 
L 622.424126 107.260773 
L 622.618537 106.303713 
L 622.812947 107.260773 
L 623.007358 107.260773 
L 623.201768 106.303713 
L 623.396179 107.260773 
L 624.562642 107.260773 
L 624.757053 106.303713 
L 624.951463 107.260773 
L 625.145874 106.303713 
L 625.340285 106.303713 
L 625.534695 107.260773 
L 627.28439 107.260773 
L 627.478801 106.303713 
L 627.867622 100.557933 
L 628.062033 101.51841 
L 628.256443 101.51841 
L 628.450854 100.557933 
L 628.839675 102.475471 
L 629.034085 104.389592 
L 629.228496 104.389592 
L 629.617317 107.260773 
L 630.006138 114.917257 
L 630.200549 115.877735 
L 630.394959 117.791856 
L 630.58937 118.08 
L 630.978191 118.08 
L 631.172602 117.791856 
L 631.367012 115.877735 
L 631.561423 115.877735 
L 631.755833 114.917257 
L 631.950244 114.917257 
L 632.144655 115.877735 
L 632.339065 114.917257 
L 632.533476 114.917257 
L 632.727886 118.08 
L 635.060813 118.08 
L 635.255224 119.321786 
L 635.449634 122.196385 
L 635.644045 123.153446 
L 635.838455 123.153446 
L 636.227277 125.067566 
L 636.421687 130.809929 
L 636.616098 131.76699 
L 637.004919 136.555711 
L 637.199329 131.76699 
L 637.588151 131.76699 
L 637.782561 130.809929 
L 637.976972 133.681111 
L 638.171382 132.72405 
L 638.949025 132.72405 
L 639.143435 133.681111 
L 639.337846 133.681111 
L 639.726667 135.59865 
L 639.921077 137.512771 
L 640.309899 135.59865 
L 640.89313 135.59865 
L 641.087541 137.512771 
L 641.281951 137.512771 
L 641.476362 136.555711 
L 641.865183 138.469831 
L 642.059594 138.469831 
L 642.254004 141.341013 
L 642.448415 140.383952 
L 642.837236 140.383952 
L 643.031647 139.426892 
L 643.226057 140.383952 
L 643.420468 140.383952 
L 644.003699 137.512771 
L 644.19811 134.638171 
L 644.586931 137.512771 
L 644.781342 137.512771 
L 644.975752 136.555711 
L 645.364573 138.469831 
L 645.558984 140.383952 
L 646.142216 140.383952 
L 646.336626 139.426892 
L 646.725447 139.426892 
L 646.919858 138.469831 
L 647.114269 139.426892 
L 647.308679 138.469831 
L 647.50309 138.469831 
L 647.6975 137.512771 
L 647.891911 137.512771 
L 648.280732 139.426892 
L 648.475143 139.426892 
L 648.863964 137.512771 
L 649.058374 126.981687 
L 649.252785 126.981687 
L 649.447195 126.024627 
L 649.836017 127.938748 
L 650.224838 127.938748 
L 650.419248 126.981687 
L 650.808069 126.981687 
L 651.196891 128.895808 
L 651.391301 128.895808 
L 651.780122 124.110506 
L 651.974533 124.110506 
L 652.168943 123.153446 
L 652.363354 123.153446 
L 652.557765 120.278846 
L 652.752175 119.321786 
L 652.946586 121.239325 
L 653.140996 120.278846 
L 653.335407 118.08 
L 653.529817 118.08 
L 653.724228 118.364725 
L 654.50187 118.364725 
L 654.696281 118.08 
L 656.834797 118.08 
L 657.029208 115.877735 
L 657.223618 115.877735 
L 657.418029 111.089015 
L 657.612439 99.600872 
L 657.80685 100.557933 
L 658.390082 100.557933 
L 658.584492 101.51841 
L 658.778903 100.557933 
L 658.973313 100.557933 
L 659.167724 98.643812 
L 660.139777 98.643812 
L 660.334187 97.686751 
L 660.528598 91.944387 
L 662.083883 91.944387 
L 662.278293 92.901449 
L 662.472704 92.901449 
L 662.667114 99.600872 
L 665.000041 99.600872 
L 665.194452 100.557933 
L 665.388862 99.600872 
L 665.583273 99.600872 
L 665.777683 98.643812 
L 665.972094 98.643812 
L 666.166505 99.600872 
L 667.332968 99.600872 
L 667.527379 106.303713 
L 667.9162 106.303713 
L 668.11061 107.260773 
L 668.305021 112.046076 
L 668.499431 111.089015 
L 668.693842 111.089015 
L 668.888253 112.046076 
L 669.082663 112.046076 
L 669.277074 111.089015 
L 669.471484 112.046076 
L 669.665895 111.089015 
L 672.193232 111.089015 
L 672.387643 112.046076 
L 672.776464 112.046076 
L 672.970875 118.08 
L 676.859086 118.08 
L 677.053497 121.239325 
L 677.442318 118.08 
L 684.052277 118.08 
L 684.246688 133.681111 
L 684.635509 133.681111 
L 685.02433 131.76699 
L 685.218741 132.72405 
L 685.413151 132.72405 
L 685.607562 122.196385 
L 685.801972 118.08 
L 704.076566 118.08 
L 704.270977 113.960197 
L 704.465387 118.08 
L 706.215082 118.08 
L 706.409493 118.364725 
L 706.603904 118.08 
L 727.017014 118.08 
L 727.211424 110.131954 
L 727.405835 111.089015 
L 727.794656 106.303713 
L 727.989066 107.260773 
L 728.183477 107.260773 
L 728.377888 109.174894 
L 728.572298 109.174894 
L 728.766709 111.089015 
L 729.15553 111.089015 
L 729.544351 113.003136 
L 729.738762 112.046076 
L 729.933172 112.046076 
L 730.127583 113.003136 
L 731.099636 113.003136 
L 731.294046 113.960197 
L 731.488457 113.003136 
L 731.682867 113.003136 
L 731.877278 112.046076 
L 732.266099 112.046076 
L 732.46051 113.003136 
L 732.849331 113.003136 
L 733.238152 114.917257 
L 733.432562 113.960197 
L 734.210205 113.960197 
L 734.404615 113.003136 
L 734.599026 113.003136 
L 734.793436 111.089015 
L 734.987847 111.089015 
L 735.182258 109.174894 
L 735.376668 110.131954 
L 735.571079 109.174894 
L 735.765489 110.131954 
L 736.15431 110.131954 
L 736.348721 109.174894 
L 736.931953 117.791856 
L 737.126363 118.08 
L 741.208985 118.08 
L 741.597806 113.003136 
L 741.986628 113.003136 
L 742.181038 114.917257 
L 742.375449 114.917257 
L 742.76427 118.08 
L 749.374229 118.08 
L 749.56864 123.153446 
L 749.76305 121.239325 
L 749.957461 126.981687 
L 750.151872 143.255134 
L 750.346282 142.298073 
L 750.929514 142.298073 
L 751.123924 141.341013 
L 751.318335 141.341013 
L 751.512746 136.555711 
L 751.707156 121.239325 
L 751.901567 122.196385 
L 752.87362 122.196385 
L 753.06803 123.153446 
L 755.206546 123.153446 
L 755.400957 122.196385 
L 757.539473 122.196385 
L 757.733884 121.239325 
L 757.928294 121.239325 
L 758.122705 122.196385 
L 758.317116 121.239325 
L 758.511526 122.196385 
L 760.455632 122.196385 
L 760.650042 121.239325 
L 761.427685 121.239325 
L 761.622095 120.278846 
L 761.816506 121.239325 
L 762.594148 121.239325 
L 762.788559 122.196385 
L 762.982969 121.239325 
L 763.17738 118.08 
L 782.035205 118.08 
L 782.229616 116.834796 
L 782.424026 116.834796 
L 782.618437 115.877735 
L 783.007258 109.174894 
L 783.201669 107.260773 
L 783.396079 107.260773 
L 783.7849 109.174894 
L 783.979311 118.08 
L 784.173722 118.08 
L 784.173722 118.08 
" style="fill:none;stroke:#ff7f0e;stroke-linecap:square;stroke-width:1.5;"/>
   </g>
   <g id="patch_3">
    <path d="M 38.482813 228.96 
L 38.482813 7.2 
" style="fill:none;stroke:#000000;stroke-linecap:square;stroke-linejoin:miter;stroke-width:0.8;"/>
   </g>
   <g id="patch_4">
    <path d="M 819.682813 228.96 
L 819.682813 7.2 
" style="fill:none;stroke:#000000;stroke-linecap:square;stroke-linejoin:miter;stroke-width:0.8;"/>
   </g>
   <g id="patch_5">
    <path d="M 38.482813 228.96 
L 819.682813 228.96 
" style="fill:none;stroke:#000000;stroke-linecap:square;stroke-linejoin:miter;stroke-width:0.8;"/>
   </g>
   <g id="patch_6">
    <path d="M 38.482813 7.2 
L 819.682813 7.2 
" style="fill:none;stroke:#000000;stroke-linecap:square;stroke-linejoin:miter;stroke-width:0.8;"/>
   </g>
   <g id="legend_1">
    <g id="patch_7">
     <path d="M 45.482813 223.96 
L 94.739063 223.96 
Q 96.739063 223.96 96.739063 221.96 
L 96.739063 193.0475 
Q 96.739063 191.0475 94.739063 191.0475 
L 45.482813 191.0475 
Q 43.482813 191.0475 43.482813 193.0475 
L 43.482813 221.96 
Q 43.482813 223.96 45.482813 223.96 
z
" style="fill:#ffffff;opacity:0.8;stroke:#cccccc;stroke-linejoin:miter;"/>
    </g>
    <g id="line2d_37">
     <path d="M 47.482813 199.145937 
L 67.482813 199.145937 
" style="fill:none;stroke:#1f77b4;stroke-linecap:square;stroke-width:1.5;"/>
    </g>
    <g id="line2d_38"/>
    <g id="text_18">
     <!-- u_x -->
     <defs>
      <path d="M 8.5 21.578125 
L 8.5 54.6875 
L 17.484375 54.6875 
L 17.484375 21.921875 
Q 17.484375 14.15625 20.5 10.265625 
Q 23.53125 6.390625 29.59375 6.390625 
Q 36.859375 6.390625 41.078125 11.03125 
Q 45.3125 15.671875 45.3125 23.6875 
L 45.3125 54.6875 
L 54.296875 54.6875 
L 54.296875 0 
L 45.3125 0 
L 45.3125 8.40625 
Q 42.046875 3.421875 37.71875 1 
Q 33.40625 -1.421875 27.6875 -1.421875 
Q 18.265625 -1.421875 13.375 4.4375 
Q 8.5 10.296875 8.5 21.578125 
z
M 31.109375 56 
z
" id="DejaVuSans-117"/>
      <path d="M 50.984375 -16.609375 
L 50.984375 -23.578125 
L -0.984375 -23.578125 
L -0.984375 -16.609375 
z
" id="DejaVuSans-95"/>
      <path d="M 54.890625 54.6875 
L 35.109375 28.078125 
L 55.90625 0 
L 45.3125 0 
L 29.390625 21.484375 
L 13.484375 0 
L 2.875 0 
L 24.125 28.609375 
L 4.6875 54.6875 
L 15.28125 54.6875 
L 29.78125 35.203125 
L 44.28125 54.6875 
z
" id="DejaVuSans-120"/>
     </defs>
     <g transform="translate(75.482813 202.645937)scale(0.1 -0.1)">
      <use xlink:href="#DejaVuSans-117"/>
      <use x="63.378906" xlink:href="#DejaVuSans-95"/>
      <use x="113.378906" xlink:href="#DejaVuSans-120"/>
     </g>
    </g>
    <g id="line2d_39">
     <path d="M 47.482813 214.102187 
L 67.482813 214.102187 
" style="fill:none;stroke:#ff7f0e;stroke-linecap:square;stroke-width:1.5;"/>
    </g>
    <g id="line2d_40"/>
    <g id="text_19">
     <!-- u_y -->
     <defs>
      <path d="M 32.171875 -5.078125 
Q 28.375 -14.84375 24.75 -17.8125 
Q 21.140625 -20.796875 15.09375 -20.796875 
L 7.90625 -20.796875 
L 7.90625 -13.28125 
L 13.1875 -13.28125 
Q 16.890625 -13.28125 18.9375 -11.515625 
Q 21 -9.765625 23.484375 -3.21875 
L 25.09375 0.875 
L 2.984375 54.6875 
L 12.5 54.6875 
L 29.59375 11.921875 
L 46.6875 54.6875 
L 56.203125 54.6875 
z
" id="DejaVuSans-121"/>
     </defs>
     <g transform="translate(75.482813 217.602187)scale(0.1 -0.1)">
      <use xlink:href="#DejaVuSans-117"/>
      <use x="63.378906" xlink:href="#DejaVuSans-95"/>
      <use x="113.378906" xlink:href="#DejaVuSans-121"/>
     </g>
    </g>
   </g>
  </g>
 </g>
 <defs>
  <clipPath id="p290a5e919d">
   <rect height="221.76" width="781.2" x="38.482813" y="7.2"/>
  </clipPath>
 </defs>
</svg>
